<?xml version="1.0" encoding="UTF-8" standalone="no"?>
<!-- Created with Inkscape (http://www.inkscape.org/) -->

<svg
   width="135.46519mm"
   height="135.46606mm"
   viewBox="0 0 135.46519 135.46606"
   version="1.1"
   id="svg1"
   xml:space="preserve"
   xmlns="http://www.w3.org/2000/svg"
   xmlns:svg="http://www.w3.org/2000/svg"><defs
     id="defs1" /><g
     id="layer1"
     transform="translate(-44.271634,-51.822047)"><path
       d="m 154.34307,187.28812 a 5.6444444,5.6444444 0 0 1 -5.24369,-3.54471 l -4.76391,-11.92672 -11.94365,-5.0292 a 5.6839556,5.6839556 0 0 1 0.19756,-10.48173 l 11.7856,-4.46475 4.7244,-11.80819 a 5.6896,5.6896 0 0 1 10.48738,0 l 4.74697,11.85334 11.85334,4.74698 a 5.6839556,5.6839556 0 0 1 0,10.48738 l -11.85334,4.74697 -4.74697,11.85334 a 5.6444444,5.6444444 0 0 1 -5.24369,3.56729 z m -53.62222,-16.93334 a 11.288889,11.288889 0 0 1 -10.927654,-7.9756 l -9.11013,-28.48751 -28.57782,-9.56169 a 11.469511,11.469511 0 0 1 0.29351,-21.84965 l 28.35204,-8.658565 9.5504,-28.527025 a 11.040533,11.040533 0 0 1 11.029254,-7.828845 11.288889,11.288889 0 0 1 10.8204,8.122356 l 8.64728,28.306884 28.39156,9.087555 a 11.525956,11.525956 0 0 1 0,21.85529 v 0 l -28.44236,9.09884 -9.09884,28.44236 a 11.288889,11.288889 0 0 1 -10.92764,7.9756 z M 101.35302,68.884607 90.560846,100.16047 a 5.6444444,5.6444444 0 0 1 -3.70276,3.61244 l -31.16298,9.50525 31.27587,10.8204 a 5.6444444,5.6444444 0 0 1 3.58987,3.62937 l 9.990664,31.21379 10.32934,-31.21379 a 5.6444444,5.6444444 0 0 1 3.6576,-3.6576 l 31.21377,-9.98502 a 0.4064,0.4064 0 0 0 0.11289,-0.0508 l -31.32666,-10.28418 a 5.6444444,5.6444444 0 0 1 -3.68018,-3.73097 z m 46.11511,50.574213 z m 12.51938,-28.126255 a 5.6444444,5.6444444 0 0 1 -5.47511,-4.27285 l -2.01507,-8.07155 -8.08849,-2.17311 a 5.6444444,5.6444444 0 0 1 0.19192,-10.950226 l 7.90222,-1.834445 2.00942,-7.936089 a 5.6444444,5.6444444 0 0 1 10.95022,0 l 1.99814,8.003823 8.00382,2.003777 a 5.6444444,5.6444444 0 0 1 0,10.95022 l -8.00382,2.00378 -1.99814,8.00382 a 5.6444444,5.6444444 0 0 1 -5.47511,4.27285 z"
       id="path1"
       style="fill:#e1f102;stroke:none;stroke-width:5.64444" /></g></svg>
