<?xml version="1.0" encoding="UTF-8" standalone="no"?>
<!-- Created with Inkscape (http://www.inkscape.org/) -->

<svg
   width="135.46667mm"
   height="135.46666mm"
   viewBox="0 0 135.46667 135.46666"
   version="1.1"
   id="svg1"
   xml:space="preserve"
   xmlns="http://www.w3.org/2000/svg"
   xmlns:svg="http://www.w3.org/2000/svg"><defs
     id="defs1" /><g
     id="layer1"
     transform="translate(-36.720059,-80.766668)"><g
       id="g1"
       transform="matrix(0.26458333,0,0,0.26458333,36.720057,80.766668)"
       style="fill:#e1f102">
	<path
   d="M 405.333,0 H 106.667 C 47.786,0.071 0.071,47.786 0,106.667 V 405.334 C 0.071,464.214 47.786,511.93 106.667,512 H 405.334 C 464.214,511.93 511.93,464.214 512,405.333 V 106.667 C 511.93,47.786 464.214,0.071 405.333,0 Z m 21.334,172.352 -197.419,197.419 c -16.659,16.666 -43.674,16.671 -60.34,0.012 -0.004,-0.004 -0.008,-0.008 -0.012,-0.012 L 85.333,286.23 c -8.348,-8.348 -8.348,-21.882 0,-30.229 8.348,-8.347 21.882,-8.348 30.229,0 l 83.541,83.541 197.44,-197.419 c 8.348,-8.318 21.858,-8.294 30.176,0.053 8.319,8.348 8.295,21.858 -0.052,30.176 z"
   id="path1"
   style="fill:#e1f102" />
</g></g></svg>
