<?xml version="1.0" encoding="UTF-8" standalone="no"?>
<!-- Created with Inkscape (http://www.inkscape.org/) -->

<svg
   width="142.81651mm"
   height="141.11328mm"
   viewBox="0 0 142.81651 141.11328"
   version="1.1"
   id="svg1"
   xml:space="preserve"
   xmlns="http://www.w3.org/2000/svg"
   xmlns:svg="http://www.w3.org/2000/svg"><defs
     id="defs1" /><g
     id="layer1"
     transform="translate(-33.895638,-77.942976)"><g
       id="g1"
       transform="matrix(5.6444444,0,0,5.6444444,36.249373,80.767366)"
       style="fill:#4438ce;stroke:#4438ce"><path
         d="M 17.115,8.05 A 1.5,1.5 0 1 0 18.95,9.115 1.5,1.5 0 0 0 17.115,8.05 Z"
         id="path1"
         style="fill:#4438ce;stroke:#4438ce" /><path
         d="M 12.115,5.05 A 1.5,1.5 0 1 0 13.95,6.115 1.5,1.5 0 0 0 12.115,5.05 Z"
         id="path2"
         style="fill:#4438ce;stroke:#4438ce" /><path
         d="M 7.115,8.05 A 1.5,1.5 0 1 0 8.95,9.115 1.5,1.5 0 0 0 7.115,8.05 Z"
         id="path3"
         style="fill:#4438ce;stroke:#4438ce" /><path
         d="M 7.115,14.05 A 1.5,1.5 0 1 0 8.95,15.115 1.5,1.5 0 0 0 7.115,14.05 Z"
         id="path4"
         style="fill:#4438ce;stroke:#4438ce" /><path
         d="M 12.5,0.007 A 12,12 0 0 0 0.083,12 a 12.014,12.014 0 0 0 12,12 c 0.338,0 0.67,-0.022 1,-0.05 a 1,1 0 0 0 0.916,-1 l -0.032,-3.588 a 3.567,3.567 0 0 1 6.09,-2.562 l 0.1,0.1 a 1.912,1.912 0 0 0 1.769,0.521 1.888,1.888 0 0 0 1.377,-1.177 A 11.924,11.924 0 0 0 24.08,11.7 12.155,12.155 0 0 0 12.5,0.007 Z m 8.982,15.4 -0.014,-0.014 a 5.567,5.567 0 0 0 -9.5,3.985 L 11.992,22 a 10.000101,10.000101 0 0 1 0.09,-20 c 0.117,0 0.235,0 0.353,0.006 a 10.127,10.127 0 0 1 9.645,9.743 9.892,9.892 0 0 1 -0.595,3.651 z"
         id="path5"
         style="fill:#4438ce;stroke:#4438ce" /></g></g></svg>
