<?xml version="1.0" encoding="UTF-8" standalone="no"?>
<!-- Created with Inkscape (http://www.inkscape.org/) -->

<svg
   width="135.46667mm"
   height="135.46666mm"
   viewBox="0 0 135.46667 135.46666"
   version="1.1"
   id="svg1"
   xml:space="preserve"
   xmlns="http://www.w3.org/2000/svg"
   xmlns:svg="http://www.w3.org/2000/svg"><defs
     id="defs1" /><g
     id="layer1"
     transform="translate(-36.720059,-80.766668)"><g
       id="g1"
       transform="matrix(5.6444444,0,0,5.6444444,36.720057,80.766667)"
       style="fill:#4438ce"><path
         d="M 23,22 H 5 A 3,3 0 0 1 2,19 V 1 A 1,1 0 0 0 0,1 v 18 a 5.006,5.006 0 0 0 5,5 h 18 a 1,1 0 0 0 0,-2 z"
         id="path1"
         style="fill:#4438ce" /><path
         d="m 6,20 a 1,1 0 0 0 1,-1 v -7 a 1,1 0 0 0 -2,0 v 7 a 1,1 0 0 0 1,1 z"
         id="path2"
         style="fill:#4438ce" /><path
         d="m 10,10 v 9 a 1,1 0 0 0 2,0 v -9 a 1,1 0 0 0 -2,0 z"
         id="path3"
         style="fill:#4438ce" /><path
         d="m 15,13 v 6 a 1,1 0 0 0 2,0 v -6 a 1,1 0 0 0 -2,0 z"
         id="path4"
         style="fill:#4438ce" /><path
         d="m 20,9 v 10 a 1,1 0 0 0 2,0 V 9 a 1,1 0 0 0 -2,0 z"
         id="path5"
         style="fill:#4438ce" /><path
         d="M 6,9 A 1,1 0 0 0 6.707,8.707 l 3.586,-3.586 a 1.025,1.025 0 0 1 1.414,0 l 2.172,2.172 a 3,3 0 0 0 4.242,0 L 23.707,1.707 A 1,1 0 0 0 22.293,0.293 l -5.586,5.585 a 1,1 0 0 1 -1.414,0 L 13.121,3.707 a 3,3 0 0 0 -4.242,0 L 5.293,7.293 A 1,1 0 0 0 6,9 Z"
         id="path6"
         style="fill:#4438ce" /></g></g></svg>
