<?xml version="1.0" encoding="UTF-8" standalone="no"?>
<!-- Created with Inkscape (http://www.inkscape.org/) -->

<svg
   width="176.38911mm"
   height="175.68352mm"
   viewBox="0 0 176.38911 175.68352"
   version="1.1"
   id="svg1"
   xml:space="preserve"
   xmlns="http://www.w3.org/2000/svg"
   xmlns:svg="http://www.w3.org/2000/svg"><defs
     id="defs1" /><g
     id="layer1"
     transform="translate(-16.258833,-60.658243)"><g
       id="g1"
       transform="matrix(0.26458333,0,0,0.26458333,36.720057,80.766668)"
       style="display:none;fill:#05022b">
	<path
   d="M 405.333,0 H 106.667 C 47.786,0.071 0.071,47.786 0,106.667 V 405.334 C 0.071,464.214 47.786,511.93 106.667,512 H 405.334 C 464.214,511.93 511.93,464.214 512,405.333 V 106.667 C 511.93,47.786 464.214,0.071 405.333,0 Z m 21.334,172.352 -197.419,197.419 c -16.659,16.666 -43.674,16.671 -60.34,0.012 -0.004,-0.004 -0.008,-0.008 -0.012,-0.012 L 85.333,286.23 c -8.348,-8.348 -8.348,-21.882 0,-30.229 8.348,-8.347 21.882,-8.348 30.229,0 l 83.541,83.541 197.44,-197.419 c 8.348,-8.318 21.858,-8.294 30.176,0.053 8.319,8.348 8.295,21.858 -0.052,30.176 z"
   id="path1"
   style="fill:#05022b" />
</g><g
       style="display:inline;fill:#e1f102"
       id="g2"
       transform="matrix(8.8194444,0,0,8.8194444,-1.380056,42.666755)"><path
         d="m 12,2.03998 c -5.5,0 -10,4.49 -10,10.02002 0,5 3.66,9.15 8.44,9.9 v -7 H 7.9 v -2.9 h 2.54 V 9.84998 c 0,-2.51 1.49,-3.89 3.78,-3.89 1.09,0 2.23,0.19 2.23,0.19 v 2.47 h -1.26 c -1.24,0 -1.63,0.77 -1.63,1.56002 v 1.88 h 2.78 l -0.45,2.9 h -2.33 v 7 c 2.3564,-0.3722 4.5022,-1.5745 6.0499,-3.39 C 21.1576,16.7546 22.0054,14.4456 22,12.06 22,6.52998 17.5,2.03998 12,2.03998 Z"
         id="path1-9"
         style="fill:#e1f102" /></g></g></svg>
