<?xml version="1.0" encoding="UTF-8" standalone="no"?>
<!-- Created with Inkscape (http://www.inkscape.org/) -->

<svg
   width="210mm"
   height="297mm"
   viewBox="0 0 210 297"
   version="1.1"
   id="svg1"
   xml:space="preserve"
   xmlns="http://www.w3.org/2000/svg"
   xmlns:svg="http://www.w3.org/2000/svg"><defs
     id="defs1" /><g
     id="g1"
     transform="matrix(0.26458333,0,0,0.26458334,220.00001,0)"><g
       id="group-R5"><path
         id="path2"
         d="M 90000,0 V 40000 H 0 V 0 h 90000"
         style="fill:#f5f6f5;fill-opacity:1;fill-rule:evenodd;stroke:none"
         transform="matrix(0.13333333,0,0,-0.13333333,0,5333.3333)" /><path
         id="path3"
         d="m 0,15317.6 c 4016.89,-3695.2 12087.6,-8710.9 25116.6,-6723.4 5127.1,782.1 9667.9,2134.1 13985.7,3419.6 C 51527.9,15713.2 62110.9,18864 79541.6,6339.1 83510.4,3487.2 86976,1560.7 90000,363.301 v -71 C 86965,1491.1 83486.7,3422.9 79503,6285.4 64321.8,17194 54341.3,16192.8 43803.9,13307.2 53969.4,15965 63796.2,16544.2 78487.4,5987.7 82469,3126.6 85944.3,1196.5 88975.3,0 h -178.5 C 85797.1,1202.8 82367.4,3118.3 78448.8,5934 63267.6,16842.6 53287.1,15841.4 42749.7,12955.8 52915.2,15613.6 62742,16192.8 77433.2,5636.3 81046.4,3040 84242.5,1210.5 87068.1,0 h -167 C 84105.7,1212.7 80951.5,3026.8 77394.6,5582.7 62213.4,16491.2 52232.9,15490 41695.4,12604.5 51861,15262.2 61687.7,15841.4 76379,5284.9 79658.5,2928.4 82594.4,1203.6 85221.5,0 h -157.7 C 82465.9,1202.5 79569.1,2911.2 76340.3,5231.3 61159.2,16139.8 51178.7,15138.6 40641.2,12253.1 50806.8,14910.8 60633.5,15490 75324.8,4933.6 78297.5,2797.4 80987.9,1180.3 83422,0 h -150.4 C 80866.1,1176.7 78212.5,2777.2 75286.1,4879.9 60105,15788.5 50124.5,14787.3 39587,11901.7 49752.6,14559.5 59579.3,15138.6 74270.6,4582.2 76958.6,2650.7 79415.8,1143.7 81661.3,0 h -145 C 79298.8,1137.9 76876.7,2628 74231.9,4528.5 59050.8,15437.1 49070.3,14435.9 38532.8,11550.3 48698.4,14208.1 58525.1,14787.3 73216.3,4230.8 75637.6,2491 77871.4,1095.7 79932.1,0 h -140.5 c -2033,1088.2 -4233.3,2466.4 -6613.9,4177.1 -15181.1,10908.6 -25161.6,9907.4 -35699.1,7021.8 10165.6,2657.8 19992.3,3237 34683.5,-7319.5 C 74331.8,2320.4 76350.9,1038.1 78229.9,0 h -136.5 C 76241.7,1029.1 74255,2294.2 72123.5,3825.7 56942.3,14734.3 46961.9,13733.1 36424.4,10847.5 46590,13505.3 56416.7,14084.5 71107.9,3528 73038.9,2140.5 74850.6,972.102 76550.5,0 h -132.6 C 74744.9,961.898 72964.3,2112.7 71069.3,3474.4 55888.1,14382.9 45907.6,13381.7 35370.2,10496.2 45535.8,13153.9 55362.5,13733.1 70053.7,3176.7 71757.6,1952.3 73368.5,898.898 74891.8,0 h -129.9 C 73265.2,887.398 71684.6,1923.3 70015.1,3123 54833.9,14031.5 44853.4,13030.3 34316,10144.8 44481.5,12802.5 54308.3,13381.7 68999.5,2825.3 70486.1,1757 71902,819 73250.7,0 h -127.4 C 71801.1,806.398 70414.7,1727 68960.9,2771.6 53779.7,13680.2 43799.2,12679 33261.7,9793.4 43427.3,12451.2 53254.1,13030.3 67945.3,2473.9 69223.6,1555.3 70449.5,733.199 71625.4,0 h -124.9 C 70350.8,719.699 69153.4,1524.3 67906.6,2420.2 52725.5,13328.8 42745,12327.6 32207.5,9442 42373.1,12099.8 52199.8,12679 66891.1,2122.5 67969,1347.9 69009.5,642 70014.5,0 h -122.7 c -979,627.699 -1991.6,1316 -3039.4,2068.8 -15181.1,10908.6 -25161.6,9907.4 -35699.1,7021.8 10165.6,2657.8 19992.3,3237 34683.6,-7319.5 C 66721.6,1135.4 67581.2,546 68416.6,0 h -120.7 c -809.8,531 -1642,1102.6 -2497.7,1717.5 C 50617.1,12626 40636.6,11624.8 30099.1,8739.3 40264.7,11397 50091.4,11976.2 64782.7,1419.7 65480.7,918.102 66163.1,445.398 66830.3,0 h -118.8 C 66069.7,429.801 65414.1,884.5 64744,1366.1 49562.9,12274.6 39582.4,11273.4 29044.9,8387.9 39210.5,11045.6 49037.2,11624.8 63728.4,1068.4 64245.7,696.598 64754.4,340.699 65254.8,0 h -117.2 C 64662.5,324.5 64180.1,662.398 63689.8,1014.7 48508.7,11923.3 38528.2,10922.1 27990.7,8036.5 38156.2,10694.3 47983,11273.4 62674.2,717 63016.5,471 63354.8,232.398 63689.7,0 h -116.1 c -309.6,215.398 -622.2,436.297 -938,663.301 C 47454.4,11571.9 37473.9,10570.7 26936.5,7685.1 37102,10342.9 46928.8,10922.1 61620,365.602 61792.2,241.898 61963.2,120.301 62133.5,0 h -114.4 c -145.3,102.898 -291,206.5 -437.7,311.898 C 44177.4,12817.8 33608.6,9671.1 21199.7,5976.7 16879.9,4690.6 12337.1,3338 7204.82,2555.1 4608.6,2159.1 2210.63,2042.6 0,2136.2 v 66.5 c 2207.31,-93.5 4602.05,22.5 7195,418 3141.9,479.3 6063.4,1172.6 8848.5,1933.4 C 13579.9,3906.8 11003.8,3325.1 8259.03,2906.5 5244.43,2446.7 2496.27,2362.9 0,2548.9 v 66.5 C 2492.88,2429.3 5237.72,2512.7 8249.21,2972.1 11391.1,3451.4 14312.6,4144.6 17097.7,4905.5 14634.1,4258.2 12058,3676.5 9313.24,3257.9 5868.42,2732.4 2769.94,2696.2 0,2994.9 v 66.9 c 2766.5,-299 5861.58,-263.4 9303.42,261.7 C 12445.3,3802.8 15366.8,4496 18151.9,5256.8 15688.3,4609.5 13112.2,4027.9 10367.5,3609.2 6478.29,3016 3031.73,3047.6 0,3479.7 v 67 C 3028.1,3114.2 6471.25,3082 10357.6,3674.9 13499.5,4154.2 16421,4847.4 19206.1,5608.2 16742.6,4960.9 14166.5,4379.3 11421.7,3960.6 7075.12,3297.6 3279.06,3412.9 0,3998.1 v 67.1 c 3275.13,-585.8 7067.95,-701.6 11411.8,-39 3141.9,479.3 6063.5,1172.6 8848.6,1933.4 C 17796.8,5312.3 15220.7,4730.7 12475.9,4312 7654.56,3576.6 3512.37,3800.1 0,4559.3 V 4627 C 3508.24,3867.1 7646.99,3642.5 12466,4377.6 15607.9,4856.9 18529.5,5550.2 21314.6,6311 18851,5663.7 16274.9,5082 13530.1,4663.4 8218.06,3853.1 3728.73,4205.4 0,5157.4 v 68.5 C 3724.2,4272.8 8210.02,3919 13520.3,4729 16662.1,5208.3 19583.7,5901.6 22368.8,6662.4 19905.2,6015 17329.1,5433.4 14584.3,5014.8 8761.25,4126.5 3927.49,4635.8 0,5800.4 v 68.9 C 3922.53,4703.5 8752.88,4192.3 14574.5,5080.4 17716.3,5559.7 20637.9,6252.9 23423,7013.8 20959.4,6366.4 18383.3,5784.8 15638.5,5366.2 9283.04,4396.7 4106.21,5092 0,6487.3 V 6557 C 4100.7,5160.3 9274,4462.4 15628.7,5431.8 18770.5,5911.1 21692.1,6604.3 24477.2,7365.1 22013.6,6717.8 19437.5,6136.2 16692.7,5717.5 9780.92,4663.2 4262.29,5577.2 0,7220 v 71 C 4256.1,5646.3 9771.03,4728.8 16682.9,5783.2 19824.8,6262.4 22746.3,6955.7 25531.4,7716.5 23067.8,7069.2 20491.7,6487.6 17747,6068.9 10251.2,4925.5 4392.9,6096.5 0,8002.3 v 72.2 c 4386.01,-1908 10240.2,-3083.6 17737.1,-1940 3141.9,479.3 6063.4,1172.6 8848.5,1933.4 C 24122,7420.6 21545.9,6839 18801.2,6420.3 10689,5182.9 4494.51,6656 0,8837.7 v 73.6 C 4486.54,6727.1 10676.9,5248.1 18791.3,6485.9 21933.2,6965.2 24854.7,7658.5 27639.8,8419.3 25176.2,7772 22600.2,7190.3 19855.4,6771.7 11088.6,5434.4 4562.12,7262.8 0,9730.1 v 75.1 C 4552.82,7335.2 11075.2,5499.4 19845.5,6837.3 22987.4,7316.6 25908.9,8009.9 28694,8770.7 26230.5,8123.3 23654.4,7541.7 20909.6,7123.1 11443.2,5679 4589.28,7926.3 0,10683.2 v 76.7 C 4578.38,8000.5 11428,5743.8 20899.8,7188.7 24041.6,7668 26963.2,8361.2 29748.3,9122 27284.7,8474.7 24708.6,7893.1 21963.8,7474.5 11743.7,5915.4 4567.44,8658.5 0,11700.9 v 78.5 C 4554.48,8735.1 11726.5,5979.9 21954,7540 25095.8,8019.4 28017.4,8712.6 30802.5,9473.4 28338.9,8826.1 25762.8,8244.5 23018,7825.8 11973.1,6141.1 4483.9,9480.5 0,12792.5 v 81.7 C 4468.01,9561.2 11952.1,6204.9 23008.2,7891.4 26150,8370.7 29071.6,9064 31856.7,9824.8 29393.1,9177.5 26817,8595.9 24072.2,8177.2 12110.9,6352.6 4319.59,10420.3 0,13964.5 v 85.1 c 4299.65,-3543 12085.2,-7633.8 24062.4,-5806.8 3141.8,479.3 6063.4,1172.6 8848.5,1933.4 C 30447.3,9528.9 27871.2,8947.3 25126.4,8528.6 12119.8,6544.6 4042.6,11527.7 0,15228.9 v 88.7"
         style="display:inline;fill:#acb9ca;fill-opacity:1;fill-rule:evenodd;stroke:none"
         transform="matrix(0.13333333,0,0,-0.13333333,0,5333.3333)" /><path
         id="path4"
         d="M 351.988,40000 C 2750.17,33377.7 8960.88,22188.5 23175.9,24390.8 c 1715.8,265.8 3303.8,518.3 4765.4,750.6 6747.3,1072.6 10801.1,1717.1 13135,1398.8 3040.8,-414.6 3175.2,-2443.4 2520.2,-7247 -101.5,-744.9 -102.1,-1417.1 -12.6,-2021.6 208.3,-1406.2 905.1,-2447.3 1952.1,-3191.4 1049.6,-746 2451.8,-1194.9 4067.1,-1415.1 2275.3,-310.2 4973.3,-167 7706.4,237.6 70.7,22.6 137,43.2 198.5,61.7 65,19.6 132.1,39.2 200.5,58.6 h 0.2 c 57.9,16.4 115,32.2 170.8,47.1 55.2,14.8 111.7,29.3 169.3,43.7 143.7,49.8 286.5,96.8 428.8,141 175.6,62.1 350,120.4 523.3,174.3 177.8,63 354.3,122 529.8,176.6 177.7,63 354.2,122 529.6,176.5 179,63.5 356.8,123 533.5,177.9 176.2,62.4 351.1,120.9 524.9,175 177.5,62.9 353.8,121.8 528.9,176.3 178.8,63.4 356.4,122.9 532.9,177.7 177.3,62.9 353.6,121.9 528.7,176.3 176.3,62.5 351.5,121.1 525.6,175.3 178.8,63.4 356.4,122.8 533,177.7 47,16.7 94,33.1 140.9,49.2 128.6,44.2 256.5,86.1 383.8,125.6 48.6,17.2 97.1,34.2 145.4,50.8 128.4,44.1 256,85.8 383.1,125.4 48.9,17.3 97.6,34.3 146.3,51.1 127.9,44 255.3,85.4 382,125 49.2,17.4 98.3,34.6 147.2,51.4 128.6,44.2 256.5,86 384,125.7 48.5,17.3 97,34.2 145.4,50.8 129.1,44.3 257.4,86.3 385.2,126 48.2,17 96.2,33.9 144.2,50.4 129.7,44.5 258.7,86.7 387.1,126.6 47.6,17 95.1,33.5 142.5,49.8 130.5,44.8 260.3,87.2 389.5,127.3 46.9,16.7 93.5,33 140.1,49 125.8,43.2 251,84.1 375.7,123 51.1,18.2 102.1,36 153.1,53.5 126.5,43.4 252.3,84.6 377.6,123.7 50.6,17.9 101,35.5 151.3,52.8 128.6,44.2 256.5,86 383.9,125.6 48.5,17.2 97,34.2 145.3,50.8 133.5,45.8 266.3,89.2 398.4,130.2 44,15.5 87.9,30.9 131.8,46 131.2,45 261.7,87.7 391.5,128 46.2,16.4 92.3,32.5 138.3,48.3 129.1,44.3 257.4,86.3 385.2,126 48.2,17.1 96.2,33.9 144.2,50.4 129.1,44.3 257.4,86.3 385.2,126 48.1,17.1 96.2,33.9 144.2,50.4 129,44.3 257.4,86.2 385.2,126 48.1,17.1 96.2,33.9 144.1,50.4 129.1,44.3 257.4,86.3 385.2,126 48.2,17.1 96.2,33.9 144.2,50.4 129,44.3 257.4,86.3 385.2,126 48.2,17 96.2,33.9 144.2,50.4 129,44.3 257.4,86.2 385.2,126 48.2,17 96.1,33.9 144.1,50.4 129.1,44.3 257.4,86.2 385.2,125.9 48.2,17.1 96.2,34 144.2,50.4 129,44.3 257.4,86.2 385.2,126 48.2,17.1 96.1,34 144.2,50.4 4435.6,1523.6 8139,474.7 12113.3,-11095.1 C 87689.3,4357.5 88539,1888.1 89262.1,0 h -70.3 C 88468.5,1889.2 87620.9,4352.3 86546.9,7478.9 82934.2,17995.7 79556,19782.1 75647.4,18862.5 79361.6,19497.3 82618.3,17402.8 86080.4,7324 87126.6,4278.1 87956.9,1864.7 88665.3,0 h -70.1 C 87886.7,1865.3 87058.4,4272.3 86017.5,7302.5 82404.9,17819.3 79026.6,19605.7 75118,18686.1 78832.2,19320.8 82088.8,17226.5 85551,7147.6 86564.6,4196.8 87375.6,1839.7 88069.3,0 h -70.2 c -693.8,1839.9 -1502.6,4190.6 -2510.9,7126.1 -3612.7,10516.8 -6991,12303 -10899.5,11383.6 3714.1,634.7 6970.8,-1459.7 10432.9,-11538.4 981.6,-2857.4 1772.9,-5158 2452,-6971.3 h -70.2 c -678.9,1813.1 -1468.2,4107.1 -2444.6,6949.7 -3612.6,10516.8 -6991,12303.1 -10899.5,11383.6 3714.1,634.7 6970.8,-1459.7 10433,-11538.4 950,-2765.5 1721.9,-5009.5 2386.1,-6794.9 h -70.1 c -664.1,1784.7 -1433.8,4022.2 -2378.9,6773.3 -3612.6,10516.8 -6990.9,12303.2 -10899.5,11383.7 3714.2,634.7 6970.9,-1459.8 10433,-11538.5 919,-2675.2 1671.3,-4862.4 2320.7,-6618.5 h -70.2 C 85564.3,1755.2 84814.3,3935.6 83900.1,6597 80354.9,16917.4 77035.3,18830.3 73219,18029.2 l -50.7,-21.5 C 76813,18550.6 80023.6,16369 83433.5,6442.1 84322,3855.8 85054.6,1725.6 85689.2,0 h -70.1 C 84985,1724.2 84254.5,3847.8 83370.7,6420.6 79894.3,16540.8 76634.9,18576.7 72911.1,17896.5 l -91.8,-40.4 c 3570.5,444 6731.3,-1827.6 10084.9,-11590.4 C 83762.6,3766.8 84475.6,1693.8 85095.1,0 h -70.2 c -619,1692 -1329.7,3758.3 -2183.6,6244.2 -3410,9926.8 -6611,12075.3 -10246.4,11512 l -125.4,-56.6 c 3497.1,345.4 6608,-2011.5 9905.3,-11610.3 C 83203.7,3676.5 83896.9,1660.7 84501.4,0 h -70.2 C 83827.4,1658.7 83136.4,3667.7 82312,6067.8 78966,15808 75821.3,18059.7 72270,17608.7 l -152.7,-70.4 c 3425.2,248.4 6486.7,-2189.1 9728.1,-11625.4 673.1,-1959.4 1257.1,-3657.2 1775.3,-5111.798 98.1,-275.5 194,-542.5 287.8,-801.102 h -70.5 c -91.3,251.801 -184.5,511.398 -279.9,779.098 C 83037.6,2240 82454.6,3935.3 81782.6,5891.4 78498.6,15451.6 75408.2,17797.7 71937,17454.6 l -176.2,-82.4 c 3355.7,153.7 6368.5,-2358.6 9555.3,-11635.7 694.7,-2022.4 1294.5,-3766.7 1827,-5257.5 58.1,-162.703 115.4,-322.301 172,-479 h -70.6 c -54,149.602 -108.6,301.699 -163.9,456.699 C 82548.3,1946.9 81948.2,3691.8 81253.2,5715 c -3224.6,9387.6 -6262.7,11819.1 -9658,11579.4 l -197.3,-93.2 c 3289.1,63.2 6254.9,-2517.6 9388.8,-11641.1 720.3,-2097 1338.7,-3894.6 1881.5,-5409.299 L 82722.3,0 h -70.3 l -46.1,128.402 C 82057,1659.9 81441.1,3450.6 80723.9,5538.6 c -3168.4,9223.5 -6156.6,11732 -9480.4,11589.3 l -215.1,-102.3 c 3225.4,-23.1 6145.7,-2666.4 9228.9,-11641.9 715.8,-2083.8 1330.9,-3872.6 1872,-5383.7 h -70.2 C 81515,1520 80904.3,3295.8 80194.5,5362.2 77079.7,14429.8 74139,17007.1 70882.4,16956.1 l -29.6,-14.1 -201,-95.7 C 73816.9,16741.3 76693.5,14041.1 79728,5207.4 80416.1,3204.2 81011.1,1474.1 81537.2,0 H 81467 C 80939.2,1479.1 80348.1,3197.8 79665.1,5185.8 76601,14105.9 73705.5,16744.9 70512,16779.9 l -245.4,-116.5 c 3108.4,-182.1 5943.7,-2933 8932,-11632.4 660.3,-1922.4 1234.9,-3593.5 1746.3,-5031 h -70.3 c -511.1,1437.1 -1082.6,3099 -1738.8,5009.5 -3016,8779.8 -5868.7,11474.9 -9003,11590.7 l -261.6,-123.1 c 3056.1,-253 5852.8,-3048.4 8798,-11622.5 C 79302.7,3010.4 79857.3,1397.5 80353,0 h -70.4 c -494.9,1395.8 -1046.5,3000 -1676.2,4833.1 -2971,8649.1 -5783.6,11393.6 -8863,11584.2 -91.7,-42.7 -183.7,-85.5 -276,-128.2 3007.3,-318.9 5767.6,-3154.4 8672.5,-11610.9 606.9,-1767 1141.5,-3321.5 1621.3,-4678.2 h -70.4 C 79212.2,1353.9 78680.4,2900.2 78077.1,4656.7 75146.9,13186.6 72370.9,15973 69341,16231 c -95.8,-44.1 -192.1,-88 -288.7,-131.7 2963,-378.5 5690.2,-3248.3 8558.2,-11597.5 580.6,-1690.2 1095,-3186.3 1558.9,-4501.8 h -70.4 c -462.2,1311 -974,2799.6 -1551.3,4480.3 -2892.3,8420.1 -5634.7,11243.7 -8619.3,11563.3 -100.6,-45.3 -201.7,-90.4 -303.1,-135.1 2923.5,-431.1 5620.9,-3330 8455.9,-11583.1 C 77636.1,2710 78130.5,1272.3 78578.1,0 h -70.4 c -445.9,1267.5 -937.7,2697.9 -1489.4,4303.9 -2858.8,8322.5 -5570.9,11177.3 -8515.3,11550.9 -105,-45.8 -210.4,-91.5 -316.4,-136.6 2888.7,-477.6 5559.6,-3401.5 8365.2,-11569.2 529.5,-1541.3 1003.8,-2921 1434.9,-4149 h -70.4 c -429.4,1223.7 -901.1,2595.8 -1427.3,4127.5 -2829.5,8237.2 -5515.5,11118.2 -8425,11538.6 -109.7,-46.2 -219.8,-92.1 -330.5,-137.6 2859.5,-516.3 5508,-3460.3 8288.9,-11555.8 504.2,-1467.9 958.5,-2789 1373,-3972.7 h -70.3 c -412.8,1178.7 -864.4,2492.5 -1365.5,3951.1 -2805.1,8166 -5469.2,11067.8 -8349.8,11527 -115.1,-46.7 -230.9,-92.8 -347.3,-138.3 274.1,-52.9 546.3,-128.2 817,-228.5 2530.7,-938 4919.4,-4054.1 7413.6,-11315 C 75972.4,2401 76406.3,1138.3 76804.2,0 h -70.2 c -396,1133 -827.5,2388.5 -1303.8,3774.7 -2486.6,7239 -4861.4,10343.2 -7373.5,11274.3 -302.1,111.9 -606.2,192.2 -912.9,244.6 -121.8,-47 -244.3,-93.3 -367.4,-138.8 310.9,-62.7 619.3,-154.6 926,-279.2 2474.3,-1005.4 4817.1,-4140.4 7261.3,-11255.7 454.6,-1323.5 868.7,-2528 1249.7,-3619.9 h -70.4 c -378.9,1086.3 -790.5,2283.5 -1242.1,3598.4 -2437,7094.3 -4766.7,10217.5 -7223.5,11215.8 -338.2,137.4 -679,234.3 -1022.9,295.9 -127.6,-46.4 -256,-91.9 -385,-136.4 353.9,-73 704.8,-183.9 1053.3,-338.1 2419.2,-1070 4716.8,-4220.3 7111.5,-11192.1 C 74864.7,2190.8 75258.6,1044.8 75622.5,0 h -70.3 c -361.9,1039.3 -753.3,2177.9 -1180.7,3422 -2387.9,6951.6 -4672.9,10090.3 -7075.4,11152.9 -380.8,168.5 -764.8,284.6 -1153,355.6 -122.3,-41.4 -245.2,-81.9 -368.7,-121.3 l -34.6,-12 c 404.2,-83.3 804.5,-216.2 1201.8,-406.3 C 69306.6,13258.7 71559,10096.4 73905,3267.1 74311.2,2084.4 74685,997.102 75031.8,0 h -70.4 c -344.6,991.297 -715.9,2071.6 -1119.3,3245.6 -2339.4,6810.3 -4580,9961.1 -6929,11085.7 -428.9,205.2 -861.5,342.8 -1299.4,422.8 -122.2,-41.4 -245.1,-81.9 -368.7,-121.3 l -34.5,-12 c 454,-93.7 903,-249.5 1348.2,-479.1 C 68870.3,12950.3 71078,9779.2 73375.6,3090.7 73758,1977.5 74111.7,948.602 74441.1,0 h -70.3 c -327.4,942.801 -678.5,1964.4 -1058,3069.2 -2291.3,6670.2 -4487.9,9830 -6784.5,11013.7 -476.2,245.4 -957.1,405.6 -1444.3,494.7 -122.1,-41.5 -244.9,-81.8 -368.4,-121.2 l -34.1,-11.8 c 503.3,-103.9 1000.3,-284.6 1493.1,-556.8 C 68433.4,12639.5 70596.8,9462.7 72846.2,2914.3 73205.1,1869.7 73538.6,899.398 73850.5,0 h -70.3 c -309.9,893.5 -640.8,1856.6 -996.8,2892.8 -2243.4,6530.8 -4396.1,9696.4 -6640.7,10936.8 -523.2,289.1 -1051.8,473.5 -1588,571.6 -122.1,-41.4 -245,-81.7 -368.4,-121.2 l -34.7,-12 c 552.8,-114 1098.1,-320.4 1638.4,-639.4 2206.7,-1302.8 4325.5,-4482.1 6526.9,-10890.7 335.5,-976.6 648.7,-1888.201 943,-2737.9 h -70.3 c -292.1,843.602 -602.9,1748.1 -935.5,2716.4 -2195.7,6391.8 -4304.5,9560.2 -6497.8,10855.1 -570.1,336.6 -1146.3,546.1 -1731.6,653.1 -121.9,-41.3 -244.6,-81.6 -367.8,-121 l -34.6,-12 c 602.4,-124.2 1195.8,-358.2 1783.7,-728.1 2154.4,-1355.4 4228.5,-4534.1 6381.5,-10802 312.4,-909.4 605.6,-1762.402 882,-2561.5 h -70.2 c -274.3,793 -565,1638.8 -874.6,2540 -2147.6,6252 -4212.1,9420 -6354,10767.5 -617.1,388.2 -1240.9,624.8 -1875.5,740.7 -121.9,-41.3 -244.5,-81.6 -367.6,-121 l -35,-12.1 c 653.2,-134.7 1295.8,-398.4 1932.1,-824.3 2101.5,-1406.6 4129.8,-4581.5 6233.5,-10705.7 289.5,-842.8 562.4,-1637.1 821,-2385.1 h -70.3 c -256.3,741.699 -526.8,1528.9 -813.6,2363.6 -2098.4,6109.1 -4117.9,9273.6 -6207.4,10672.2 -664.9,445.1 -1337.4,710.9 -2022.3,835.9 -121.8,-41.2 -244.4,-81.5 -367.4,-120.9 l -34.9,-12.1 c 706.8,-145.6 1401.4,-442.6 2088.9,-932.6 2045.6,-1458 4025.2,-4625.5 6076.6,-10597.3 266.9,-777 519.7,-1512.597 760.1,-2208.8 h -70.2 c -238.2,689.801 -488.6,1418.4 -752.7,2187.3 -2046.5,5957.5 -4017.8,9114.8 -6052.2,10564.8 -715.6,510 -1439.5,808.3 -2177.7,943.2 -121.8,-41.3 -244.3,-81.5 -367.3,-120.8 l -34.2,-11.9 c 769.1,-158.6 1523.4,-496.7 2270,-1067 1981.3,-1513.9 3904.2,-4668.2 5894.8,-10463.2 244.4,-711.6 477.2,-1388.697 699.3,-2032.4 h -70.3 c -219.9,637.301 -450.1,1307.2 -691.8,2010.9 -1986,5781.5 -3901.3,8926 -5872.3,10432.1 -774.1,591.5 -1557.2,929.8 -2357.2,1076 -126.2,-42.8 -253.1,-84.5 -380.7,-125.1 l -22.7,-7.9 c 864.2,-178.1 1709.8,-582.1 2546.5,-1288.1 1884.5,-1590.4 3721.4,-4715.1 5619.9,-10241.9 222.2,-646.9 434.6,-1265.199 638.3,-1856 h -70.2 c -201.4,584.301 -411.4,1195.4 -631,1834.5 -1894.3,5514.6 -3724.3,8630 -5599.8,10212.8 -863.4,728.7 -1736.9,1132.1 -2631.4,1295.2 -111.4,-37.8 -223.2,-74.7 -335.7,-110.8 32.7,-7.1 68.2,-15.3 106.3,-24.4 238.4,-57.2 475.4,-131.9 710.8,-225.4 235.9,-93.9 470.5,-206.8 703.3,-340 196,-112.2 391.8,-239.5 587.3,-382.6 195.1,-142.8 389.7,-301.3 583.2,-475.6 108.7,-97.9 217.3,-200.7 325.4,-308.7 107.4,-107.1 215.7,-220.8 324.6,-341 82.6,-91 165.2,-185.7 247.7,-283.8 83.2,-98.7 165.7,-200 247.3,-303.4 68.8,-87 138.3,-177.2 208.1,-270.4 69.9,-93.3 139.3,-188.3 208,-285 59.6,-84 120.5,-171.8 182,-262.4 60.9,-89.7 121.2,-180.3 180.6,-271.6 55.9,-85.9 110,-170.8 162.4,-254.7 54.5,-87 108.6,-175.2 162.3,-264 47.4,-78.3 97,-161.7 148.4,-249.6 50.2,-85.9 99.8,-172 148.5,-257.9 90.3,-159.3 181.9,-325.3 274.7,-498.7 42.4,-79.2 85.3,-160.2 128.2,-242.3 47,-90.4 90.2,-173.7 128.3,-248.7 38,-74.8 78.5,-155.4 120.3,-239.7 40.1,-80.9 80.4,-162.9 120.3,-245.2 40.4,-83 78.3,-161.8 114.3,-237.3 38.2,-80.4 76.4,-161.4 114.2,-242.5 30.9,-66.5 66.8,-144.2 108.6,-235.5 36.6,-79.9 73,-160.1 108.8,-240.1 37.2,-83 71.8,-160.9 103.8,-233.5 35.1,-79.8 69.8,-159.3 103.7,-237.9 l -0.1,-0.1 c 33.8,-78.1 66.8,-155.4 99.2,-231.9 36.7,-86.2 69.6,-164.5 99.4,-235.9 29.4,-70.4 61.6,-148.3 95.4,-230.4 36.1,-88.1 68.6,-167.6 95.6,-234.2 178.4,-441 358.2,-904.3 539,-1390.3 181.1,-486.7 361.7,-992.1 541.9,-1516.6 201.6,-586.9 395,-1150.002 581.2,-1690.4 h -140.4 c -181.7,527.398 -370.3,1076.2 -566.5,1647.3 -185.6,540.5 -369.8,1055.5 -552.3,1545.8 -182.9,490.9 -366.1,961.8 -549.5,1413.2 -36.7,90.3 -68.7,168.5 -95.9,234.3 -27.6,66.9 -59.3,143 -95.9,230.3 -36,85.7 -69.2,164.2 -99.9,236 -36.6,85.8 -69.3,161.8 -99.8,231.8 -30.7,71 -65.8,150.8 -104.3,237.8 -35.3,79.6 -70.1,157.5 -104.3,233.3 -36.6,81.6 -73.2,161.7 -109.1,240 v 0.1 c -36.7,79.8 -73.2,158.2 -109.2,235.1 -38.3,82 -76.7,162.9 -114.7,242.3 -38.3,80.1 -76.5,159.2 -114.5,237 -36.4,74.5 -76.4,155.6 -121.1,245.2 -43.4,87 -84,167.3 -120.9,239.4 -42.2,82.3 -85.6,165.5 -129.6,248.8 -42.9,81.3 -86,162.1 -129.5,242.4 -43.7,81.1 -89.8,165.5 -138,252.7 -45.4,81.9 -91.3,163.8 -137.9,245.1 -50.8,88.8 -101,174.8 -150.5,258.3 -50.7,85.3 -100.9,168.6 -150.4,249.6 -53.4,87.5 -108.3,175.4 -164,263.2 -56.8,89.5 -112.1,175 -165.6,256 v 0.2 c -60.6,91.9 -122.2,183.1 -184.3,273.3 -61.7,89.6 -123.2,176.8 -184.3,261.4 -69.8,96.8 -140.5,192.2 -211.9,285.9 -69.9,91.9 -140.7,182.3 -212,270.7 -86.2,106.7 -171.9,209.2 -256.8,307 -85.2,98.2 -171.1,193.5 -257.1,285.5 l 0.1,0.1 c -114,121.9 -228.9,238.3 -344.5,349.3 -114.8,110.3 -229.9,214.6 -345.1,313 -446.7,382 -896.1,676.4 -1349.4,894.7 -450.1,216.8 -904.3,358.8 -1363.9,437.3 -68,-22.9 -138.4,-46.3 -210.8,-69.6 v 0 l -109,-35.1 c -53.8,-18.7 -107.5,-37 -161.3,-55.2 -120.1,-40.7 -240.9,-80.6 -362.1,-119.3 -173,-59.9 -346.9,-118 -521.8,-173.9 -174.5,-60.5 -350.2,-119.2 -527,-175.7 -174.2,-60.4 -349.6,-118.9 -526.1,-175.3 -175,-60.7 -351.4,-119.5 -529.1,-176.3 -175.4,-60.8 -352,-119.7 -529.9,-176.5 -175.4,-60.8 -352.2,-119.9 -530.3,-176.7 -174.8,-60.7 -350.9,-119.4 -528.2,-176.1 -175.3,-60.8 -351.9,-119.7 -529.8,-176.5 -175.2,-60.7 -351.6,-119.5 -529.3,-176.3 -175.7,-60.9 -352.6,-120 -530.9,-176.9 -174.2,-60.4 -349.7,-119 -526.6,-175.5 -175.3,-60.8 -352,-119.7 -529.9,-176.5 -175.1,-60.7 -351.5,-119.6 -529.2,-176.4 -175.4,-60.8 -352.1,-119.8 -530.3,-176.7 -174.3,-60.4 -349.9,-119 -526.8,-175.6 -175.4,-60.7 -352.1,-119.6 -530.2,-176.6 -175.8,-60.9 -352.9,-120.1 -531.5,-177.1 -182,-63.1 -365.5,-124.3 -550.5,-183.1 -173,-59.8 -347.1,-117.7 -522.7,-173.6 l -68.6,-23.7 c -264.5,-103.5 -532.1,-203.7 -802.6,-299.6 -270.8,-96 -544.8,-188 -821.9,-274.5 -2672.3,-835.1 -5816.1,-1596 -8883.6,-2010.4 -2550.2,-344.6 -5048.1,-449.7 -7178.9,-159.2 -752.6,102.6 -1459.8,254.6 -2107.3,462.8 -617.4,198.4 -1181.3,448.1 -1679.3,754.8 -523.7,322.5 -974.8,708.1 -1339.4,1163.6 -349,436 -618.6,935.9 -796.5,1505.3 -127.8,408.9 -208.3,853.8 -237,1336.9 -27.8,468.8 -6.8,973.8 67.2,1516.6 323.7,2374.4 453.5,4062.3 131,5204.5 -319.9,1133.1 -1089.8,1729.8 -2566,1931 -2319.5,316.3 -6367.4,-327.2 -13104.1,-1398.1 l -0.3,-0.1 -2.3,-0.3 v 0 l -24,-3.8 C 9015.93,18988.6 7443.84,18738.7 5722.06,18472 3648.76,18150.7 1747.29,18116.3 0,18306.7 v 66.6 c 664.781,-73 1352.12,-113 2062.87,-117 -710.75,4 -1398.089,44 -2062.87,117 v 67.6 c 1740.64,-191.6 3635.41,-158.4 5701.87,161.7 l 222.14,34.5 C 3768.44,18331.4 1798.74,18334.5 0,18582.8 v 66.5 c 1885.29,-261.7 3956.71,-256.1 6236.29,97 1715.74,265.8 3303.76,518.4 4765.31,750.7 6747.3,1072.6 10801.1,1717.1 13135,1398.8 3040.8,-414.6 3175.3,-2443.5 2520.3,-7247 -135.2,-991.5 -91.5,-1853.7 105.2,-2599.2 319.7,-1211.1 1044.4,-2115.5 2062.8,-2768.2 1021.1,-654.3 2337.8,-1056.3 3838.6,-1260.9 3113.2,-424.6 7016.4,-0.2 10719,781.2 -3545.1,-710.4 -7229.3,-1075.3 -10198.5,-670.5 -1485.3,202.5 -2792.7,598 -3815,1238.9 -1025,642.6 -1763.6,1531.9 -2108.7,2720.5 -226.5,780.5 -283.3,1690.1 -139.7,2743.3 648.7,4757.3 519.4,6766 -2463.4,7172.7 -2324.5,317 -6374.7,-326.9 -13115.8,-1398.6 -1456.8,-231.5 -3039.44,-483.2 -4765.67,-750.6 C 4278.4,18470.5 2027.4,18495.5 0,18835.6 v 67.9 c 2023.96,-341.2 4271.56,-367.1 6765.66,19.2 1715.73,265.8 3303.74,518.4 4765.34,750.7 6747.3,1072.6 10801.1,1717 13135,1398.8 3040.8,-414.6 3175.3,-2443.5 2520.2,-7247.1 -142.3,-1043.7 -86.3,-1944.1 137.7,-2716 340.2,-1171.9 1068.9,-2048.9 2080.1,-2682.9 1014,-635.7 2312.3,-1028.1 3788.7,-1229.3 3114.8,-424.8 7020.3,0.2 10724.4,782.3 -3546.8,-711 -7233.1,-1076.6 -10203.8,-671.6 -1483.6,202.3 -2789.6,597 -3811.4,1236.7 -1024.4,641.3 -1763.4,1528.6 -2109.8,2714.5 -228.6,782.3 -286.2,1694.6 -142.1,2751.5 648.7,4757.2 519.3,6766 -2463.4,7172.7 -2324.5,317 -6374.8,-327 -13115.9,-1398.6 C 10614,19552.8 9031.33,19301.2 7305.1,19033.8 4587.43,18612.7 2163.54,18682.5 0,19112.3 v 68.2 c 2159.96,-431.2 4580.51,-501.9 7295,-81.4 1715.76,265.8 3303.8,518.4 4765.3,750.7 6747.4,1072.6 10801.2,1717 13135.1,1398.8 3040.7,-414.6 3175.2,-2443.5 2520.2,-7247.1 -142.8,-1047.3 -85.9,-1950.5 140.1,-2724.2 341.5,-1169.1 1070.5,-2044.2 2081.2,-2677 1013.3,-634.3 2310.5,-1026 3785.2,-1227.1 3107.9,-423.7 7002.7,-1.5 10699.5,777.3 -3539,-707.8 -7215.1,-1070.6 -10178.8,-666.5 -1486.7,202.8 -2795,598.6 -3817.6,1240.4 -1025.2,643.4 -1763.7,1533.9 -2107.8,2724.6 -225.2,779.3 -281.3,1687.1 -138,2737.7 648.7,4757.2 519.3,6766 -2463.4,7172.7 -2324.6,316.9 -6374.8,-327 -13115.9,-1398.6 -1456.8,-231.6 -3039.41,-483.2 -4765.64,-750.6 C 4892.79,18754.4 2295.23,18873.6 0,19402.7 v 68.9 c 2291.65,-530.8 4885.74,-651.3 7824.37,-196.1 1715.75,265.8 3303.73,518.4 4765.33,750.7 6747.3,1072.6 10801.1,1717 13135,1398.8 3040.8,-414.6 3175.3,-2443.5 2520.3,-7247.1 -142,-1041.1 -86.6,-1939.8 136,-2710.4 339.3,-1173.8 1067.8,-2052.1 2079.5,-2687 1014.2,-636.6 2313.5,-1029.4 3791.1,-1230.9 3111.2,-424.2 7011.1,-0.6 10711.5,779.8 -3542.8,-709.5 -7223.8,-1073.6 -10191,-669 -1490.7,203.2 -2802,600.7 -3825.9,1245.6 -1026.5,646.6 -1764.3,1541.8 -2105,2738.9 -220.6,774.9 -274.5,1676.2 -132.5,2718.2 648.7,4757.2 519.4,6766 -2463.4,7172.7 -2324.6,316.9 -6374.7,-327 -13115.9,-1398.6 -1456.7,-231.6 -3039.3,-483.2 -4765.57,-750.6 -3169.68,-491.1 -5941.4,-317 -8363.83,321.1 v 69.8 c 2418.7,-640.2 5186.91,-816.2 8353.73,-325.6 1715.77,265.8 3303.77,518.3 4765.37,750.7 6747.3,1072.6 10801.1,1717 13135,1398.8 3040.8,-414.6 3175.2,-2443.5 2520.2,-7247.1 -140.7,-1032.5 -87.5,-1924.9 130.6,-2691.2 335.9,-1180.2 1063.7,-2063 2076.6,-2701 C 31997,8322.4 33299.3,7928 34780.9,7726 c 3110.9,-424.2 7010.6,-0.7 10710.8,779.5 -3542.5,-709.2 -7223.2,-1073.3 -10190.1,-668.7 -1495.3,203.9 -2810.1,603.1 -3835.3,1251.5 -1027.9,650 -1765,1550.4 -2102,2755.1 -215.3,770 -266.9,1664 -126.2,2696.1 648.7,4757.2 519.3,6766 -2463.4,7172.6 -2324.5,317 -6374.8,-326.9 -13115.9,-1398.5 C 12202.1,20082 10619.4,19830.4 8893.19,19562.9 5490.28,19035.8 2545.54,19274.5 0,20032 v 69.8 c 2541.63,-759.9 5483.12,-1000.3 8883.1,-473.5 1715.7,265.8 3303.8,518.3 4765.3,750.6 6747.4,1072.7 10801.2,1717.1 13135.1,1398.9 3040.7,-414.6 3175.2,-2443.5 2520.2,-7247.1 -139.5,-1022.9 -88.5,-1908.3 124.4,-2669.7 332.1,-1187.3 1059.3,-2075.2 2073.5,-2716.6 1016.9,-643.2 2322.7,-1039.4 3808.8,-1242 3119.9,-425.4 7032.9,1.7 10742.6,786.2 -3552.4,-713.6 -7246.5,-1081.2 -10222.1,-675.4 -1500.2,204.5 -2818.7,605.6 -3845.2,1257.7 -1029.2,653.7 -1765.4,1559.5 -2098.3,2771.9 -210,764.8 -259.3,1651.4 -120,2673.1 648.8,4757.2 519.4,6765.9 -2463.3,7172.6 -2324.6,317 -6374.8,-326.9 -13115.9,-1398.5 -1456.8,-231.6 -3039.4,-483.2 -4765.64,-750.7 -3642,-564.2 -6758,-249.7 -9422.56,638 v 70.8 c 2660.51,-890.4 5773.13,-1207.3 9412.46,-643.4 1715.74,265.7 3303.74,518.3 4765.34,750.6 6747.3,1072.6 10801.1,1717.1 13135,1398.8 3040.8,-414.5 3175.3,-2443.4 2520.3,-7247 -138.1,-1012.8 -89.6,-1890.7 118,-2646.9 328.1,-1194.9 1054.5,-2088.1 2070.2,-2733.3 1018.3,-646.8 2327.6,-1044.8 3818.3,-1248.1 3104.7,-423.4 6994.9,-2.4 10688.3,774.8 -3535.4,-706.2 -7206.7,-1067.8 -10167.2,-664.2 -1505.1,205.3 -2827.5,608.4 -3855.7,1264.5 -1030.8,657.7 -1766.4,1569.3 -2095,2789.7 -204.3,759.1 -251,1637.7 -113.2,2648.6 648.7,4757.3 519.3,6766 -2463.4,7172.7 -2324.5,317 -6374.7,-326.9 -13115.9,-1398.5 -1456.7,-231.6 -3039.4,-483.2 -4765.58,-750.7 C 6065.87,19313.7 2778.59,19712 0,20740 v 71.9 c 2774.32,-1031.4 6058.17,-1432.5 9941.83,-830.8 1715.77,265.7 3303.77,518.3 4765.37,750.6 6747.3,1072.6 10801.1,1717.1 13135,1398.8 3040.8,-414.6 3175.2,-2443.4 2520.2,-7247 -136.6,-1001.9 -90.5,-1871.8 111.7,-2622.7 323.9,-1203.2 1049.4,-2102.2 2066.5,-2751.1 1019.6,-650.6 2332.9,-1050.6 3828.9,-1254.7 3121.5,-425.6 7037.2,2.2 10748.6,787.5 C 43563.8,8328.2 39867.2,7960 36889.6,8366 c -1510.3,205.9 -2836.2,611.1 -3865.8,1270.9 -1032.2,661.5 -1766.8,1578.9 -2090.9,2807.5 -198.8,753.6 -243.1,1624.2 -106.7,2624.2 648.7,4757.3 519.3,6766 -2463.4,7172.7 -2324.5,317 -6374.8,-326.9 -13115.9,-1398.5 -1456.7,-231.6 -3039.4,-483.2 -4765.6,-750.7 C 6345.87,19451.4 2887.43,19942.3 0,21121.1 v 73.1 c 2883.05,-1182.8 6337.83,-1677.1 10471.2,-1036.7 1715.7,265.7 3303.7,518.3 4765.3,750.6 6747.3,1072.6 10801.2,1717.1 13135.1,1398.8 3040.7,-414.6 3175.2,-2443.4 2520.2,-7247 -135.2,-991.2 -91.5,-1853.4 105.1,-2598.6 319.6,-1211.2 1044.3,-2115.9 2062.8,-2768.6 1021,-654.4 2337.9,-1056.5 3838.6,-1261.1 3114.1,-424.6 7018.5,0 10722.1,781.9 -3546,-710.7 -7231.4,-1076.1 -10201.4,-671.1 -1515.3,206.5 -2845.3,613.8 -3876.3,1277.6 -1033.7,665.5 -1767.2,1588.9 -2086.9,2825.9 -193.3,747.9 -235.1,1610.2 -100.3,2599.1 648.7,4757.3 519.4,6766 -2463.3,7172.7 -2324.6,317 -6374.8,-327 -13115.9,-1398.6 -1456.8,-231.5 -3039.4,-483.2 -4765.6,-750.6 C 6620,19588.2 2991.04,20181.7 0,21522 v 74.5 c 2986.37,-1344.9 6611.64,-1942.6 11000.6,-1262.6 1715.7,265.7 3303.7,518.3 4765.3,750.6 6747.3,1072.6 10801.1,1717 13135,1398.8 3040.8,-414.6 3175.3,-2443.4 2520.3,-7247 -133.7,-980.4 -92.5,-1834.2 98.6,-2573.8 315.1,-1219.5 1038.8,-2130 2058.8,-2786.7 1022.6,-658.4 2343.3,-1062.5 3849.2,-1267.8 3107.5,-423.8 7002,-1.8 10698.5,776.8 -3538.6,-707.6 -7214.1,-1070.2 -10177.6,-666.1 -1520.6,207.3 -2854.5,616.6 -3887.2,1284.6 -1035.3,669.7 -1768,1599.1 -2083,2844.8 -187.6,741.8 -226.9,1595.7 -93.6,2573.3 648.7,4757.2 519.3,6766 -2463.4,7172.7 -2324.5,317 -6374.7,-327 -13115.9,-1398.6 C 14848.9,20964 13266.2,20712.3 11540,20444.9 6886.78,19724 3089.39,20434 0,21947.2 v 74.6 c 3084.4,-1518.2 6878.42,-2232.2 11529.9,-1511.6 1715.8,265.8 3303.8,518.4 4765.4,750.7 6747.3,1072.6 10801.1,1717 13135,1398.8 3040.8,-414.6 3175.2,-2443.5 2520.2,-7247.1 -132.1,-968.9 -93.3,-1814.5 92.3,-2548.4 310.5,-1228.1 1033.3,-2144.7 2054.7,-2805.4 1024,-662.4 2348.7,-1068.5 3860,-1274.5 3117.5,-425.1 7027,1.1 10734.2,784.5 -3549.9,-712.4 -7240.6,-1079.1 -10214.2,-673.6 -1525.7,208.1 -2863.4,619.5 -3897.4,1291.5 -1036.7,673.7 -1768.3,1609.1 -2078.6,2863.4 -182.1,735.7 -219,1581.2 -87.2,2547.7 648.7,4757.2 519.3,6766 -2463.4,7172.7 -2324.6,317 -6374.8,-327 -13115.9,-1398.6 -1456.8,-231.5 -3039.4,-483.2 -4765.6,-750.6 C 7146.39,19858.5 3182.02,20698.2 0,22395.6 v 76.2 c 3176.77,-1703 7137.61,-2547.6 12059.3,-1785.2 1715.7,265.8 3303.7,518.4 4765.3,750.7 6747.3,1072.6 10801.2,1717 13135,1398.8 3040.8,-414.6 3175.3,-2443.5 2520.3,-7247.1 -130.6,-957.9 -94.3,-1795.2 85.9,-2523.1 305.8,-1236.6 1027.5,-2159 2050.3,-2823.6 1025.4,-666.4 2353.8,-1074.6 3870.2,-1281.4 3106.7,-423.7 7000.4,-1.9 10696.3,776.4 C 45644.5,9030 41969.8,8667.6 39007,9071.6 c -1530.9,208.7 -2872.7,622.2 -3908.2,1298.4 -1038.2,677.9 -1768.8,1619.5 -2074.3,2882.5 -176.6,729.8 -211.1,1566.8 -80.9,2521.7 648.7,4757.2 519.4,6766 -2463.3,7172.7 -2324.6,316.9 -6374.8,-327 -13116,-1398.6 -1456.7,-231.6 -3039.3,-483.2 -4765.5,-750.6 C 7398.67,19992 3268.57,20974.4 0,22867 v 77.7 c 3262.99,-1898.9 7389.51,-2887.2 12588.6,-2081.7 1715.8,265.8 3303.8,518.4 4765.4,750.7 6747.3,1072.5 10801.1,1717 13135,1398.8 3040.8,-414.6 3175.3,-2443.5 2520.3,-7247.1 -129.2,-946.7 -95.1,-1775.6 79.5,-2497.3 301.2,-1245.3 1021.9,-2173.8 2046,-2842.5 1026.9,-670.6 2359.5,-1081 3881,-1288.4 3108.8,-423.9 7005.4,-1.3 10703.3,777.9 -3540.1,-708.3 -7217.7,-1071.5 -10182.6,-667.2 -1536.4,209.5 -2882.3,625.2 -3919.1,1305.5 -1039.8,682.1 -1769.2,1629.9 -2069.9,2902 -171,723.3 -203.1,1551.6 -74.5,2495.2 648.7,4757.2 519.3,6765.9 -2463.4,7172.6 -2324.5,317 -6374.7,-326.9 -13115.9,-1398.5 -1456.7,-231.6 -3039.4,-483.2 -4765.6,-750.6 C 7643.14,20124.3 3348.39,21263.5 0,23362.5 v 79.5 c 3342.49,-2106.1 7633.45,-3252.3 13118,-2402.6 1715.8,265.8 3303.8,518.3 4765.4,750.6 6747.3,1072.6 10801.1,1717.1 13135,1398.9 3040.8,-414.7 3175.2,-2443.5 2520.2,-7247.1 -127.5,-935.2 -95.8,-1755.6 73.4,-2471.4 296.4,-1254 1015.9,-2188.6 2041.6,-2861.5 1028.4,-674.7 2364.9,-1087.2 3891.6,-1295.4 3116.3,-425 7024.4,0.7 10730.5,783.7 -3548.6,-711.9 -7237.4,-1078.1 -10210.1,-672.8 -1541.6,210.2 -2891.2,628.1 -3929.7,1312.6 -1041.1,686.3 -1769.5,1640.4 -2065.3,2921.2 -165.5,717.1 -195.3,1536.7 -68.2,2468.8 648.7,4757.2 519.3,6765.9 -2463.4,7172.6 -2324.6,317 -6374.8,-326.9 -13115.9,-1398.5 -1456.8,-231.6 -3039.4,-483.2 -4765.6,-750.7 C 7879.02,20255.2 3421.37,21567.2 0,23883.9 v 81.3 c 3415,-2324.6 7868.81,-3644.6 13647.4,-2749.4 1715.7,265.8 3303.7,518.3 4765.3,750.6 6747.3,1072.6 10801.2,1717.1 13135,1398.9 3040.8,-414.7 3175.3,-2443.5 2520.3,-7247.1 -126,-924 -96.6,-1735.7 67.2,-2445.3 291.6,-1262.8 1010,-2203.7 2037,-2880.6 1029.7,-678.8 2370,-1093.3 3902.2,-1302.3 3101.4,-422.8 6987.1,-3.2 10677.4,772.6 -3532.1,-704.8 -7198.8,-1065.3 -10156.4,-662 -1547.2,210.9 -2901.1,631.1 -3941,1319.9 -1042.5,690.6 -1769.8,1651.1 -2060.5,2941.1 -160.1,710.7 -187.6,1521.5 -62.2,2441.7 648.7,4757.3 519.4,6766 -2463.4,7172.7 -2324.5,317 -6374.7,-326.9 -13115.9,-1398.5 -1456.7,-231.6 -3039.3,-483.2 -4765.6,-750.7 C 8105.63,20384.7 3486.85,21886.9 0,24432.4 v 83.4 c 3480.01,-2554.3 8094.73,-4065.9 14176.7,-3123.6 1715.8,265.8 3303.8,518.3 4765.4,750.6 6747.3,1072.6 10801.1,1717.1 13135,1398.8 3040.8,-414.6 3175.3,-2443.4 2520.3,-7247 -124.5,-912.4 -97.4,-1715.4 61.1,-2418.6 286.6,-1271.8 1003.9,-2218.9 2032.4,-2900.2 1031.2,-683 2375.7,-1099.9 3913.2,-1309.6 3118.3,-425.2 7029.3,1.2 10737.3,785 -3550.6,-712.7 -7242.3,-1079.6 -10217,-674 -1552.5,211.6 -2910.3,634 -3951.5,1326.9 -1044.1,695.1 -1770.1,1661.8 -2055.7,2960.8 -154.8,704.2 -180,1506 -56.1,2414.8 648.7,4757.3 519.3,6766 -2463.4,7172.7 -2324.5,317 -6374.7,-326.9 -13115.9,-1398.5 -1456.7,-231.6 -3039.4,-483.3 -4765.6,-750.7 C 8322.06,20512.6 3544.44,22223.9 0,25009.7 v 85.6 c 3537.06,-2795.5 8310.5,-4517.6 14706.1,-3526.7 1715.7,265.8 3303.8,518.3 4765.4,750.6 6747.3,1072.6 10801.1,1717.1 13135,1398.8 3040.7,-414.6 3175.2,-2443.4 2520.2,-7247 -122.8,-900.8 -97.9,-1695.1 55.3,-2392.2 281.6,-1280.6 997.6,-2233.9 2027.4,-2919.4 1032.5,-687.2 2380.9,-1106.2 3923.7,-1316.6 3107.2,-423.7 7001.7,-1.7 10698.2,776.9 -3538.5,-707.6 -7214,-1070.2 -10177.5,-666.1 -1557.8,212.4 -2919.7,636.8 -3962.5,1334.3 -1045.4,699.3 -1770.2,1672.4 -2050.6,2980.5 -149.5,697.6 -172.6,1490.6 -50.2,2387.7 648.7,4757.3 519.3,6766 -2463.4,7172.7 -2324.6,317 -6374.8,-326.9 -13115.9,-1398.6 -1456.8,-231.5 -3039.4,-483.2 -4765.6,-750.6 C 8527.4,20638.8 3593.59,22580.3 0,25617.5 v 88 c 3585.55,-3047.7 8515.06,-5001.7 15235.5,-3960.6 1715.7,265.8 3303.7,518.4 4765.3,750.7 6747.3,1072.6 10801.1,1717.1 13135,1398.8 3040.8,-414.6 3175.3,-2443.5 2520.3,-7247 -121.2,-889.3 -98.6,-1674.8 49.4,-2365.2 276.5,-1289.8 991.4,-2249.6 2022.6,-2939.3 1033.8,-691.5 2386.2,-1112.6 3934.5,-1323.7 3108,-423.8 7004,-1.5 10701.3,777.5 -3539.6,-708 -7216.1,-1071 -10180.5,-666.8 -1563.4,213.1 -2929.4,639.9 -3973.6,1341.7 -1046.9,703.6 -1770.4,1683.3 -2045.6,3000.6 -144.3,691 -165.1,1475 -44.4,2360.3 648.7,4757.3 519.4,6766 -2463.4,7172.7 -2324.5,317 -6374.7,-326.9 -13115.9,-1398.6 -1456.7,-231.5 -3039.3,-483.2 -4765.6,-750.6 C 8720.74,20763.1 3633.42,22958 0,26257.6 v 90.4 c 3624.8,-3310.9 8707.57,-5520 15764.8,-4426.7 1715.8,265.8 3303.8,518.4 4765.4,750.7 6747.3,1072.6 10801.1,1717.1 13135,1398.8 3040.8,-414.6 3175.3,-2443.5 2520.2,-7247.1 -119.6,-877.7 -99.1,-1654.3 43.7,-2337.9 271.3,-1299.1 985,-2265.2 2017.5,-2959.3 1035.3,-695.8 2391.8,-1119.2 3945.5,-1331 3081.4,-420.2 6936.9,-8.7 10605.7,757.4 l 5.3,2.4 c -3511.9,-696.1 -7151.6,-1049.6 -10090.7,-648.9 -1568.8,213.9 -2938.8,642.8 -3984.2,1348.9 -1048.2,707.9 -1770.3,1694.1 -2040.2,3020.6 -139.2,684.5 -157.9,1459.4 -38.8,2333 648.7,4757.2 519.3,6766 -2463.4,7172.7 -2324.5,317 -6374.8,-327 -13115.9,-1398.6 -1456.7,-231.6 -3039.4,-483.2 -4765.6,-750.6 C 8900.76,20885.4 3663.31,23359.4 0,26931.6 v 93.1 c 3653.87,-3584.5 8886.75,-6074.6 16294.2,-4927 1715.7,265.8 3303.8,518.4 4765.3,750.7 6747.4,1072.6 10801.2,1717 13135.1,1398.8 3040.7,-414.6 3175.2,-2443.5 2520.2,-7247.1 -118.1,-866.2 -99.7,-1633.7 38.1,-2310.9 266.1,-1308 978.3,-2280.5 2012.3,-2978.9 1036.7,-700.1 2397.1,-1125.7 3956,-1338.3 3003.6,-409.5 6743,-28.8 10328,700.2 l 12.7,6 c -3427.2,-660.7 -6955.6,-986.2 -9819.4,-595.7 -1574.3,214.6 -2948.5,645.8 -3995.6,1356.5 -1049.8,712.5 -1770.8,1705.3 -2035.2,3041.3 -134,677.3 -150.6,1443 -33.1,2305 648.7,4757.2 519.3,6766 -2463.5,7172.7 -2324.5,317 -6374.7,-327 -13115.8,-1398.6 -1456.8,-231.6 -3039.4,-483.2 -4765.6,-750.6 C 9066.47,21005.4 3682.36,23786.8 0,27641.5 v 95.9 c 3671.94,-3867.5 9051.38,-6667.4 16823.6,-5463.3 1715.7,265.8 3303.7,518.4 4765.3,750.7 6747.3,1072.6 10801.1,1717 13135,1398.8 3040.8,-414.6 3175.3,-2443.5 2520.3,-7247.1 -116.5,-854.3 -100.1,-1612.8 32.6,-2283.5 260.8,-1317.5 971.8,-2296.7 2007.1,-2999.3 1038,-704.5 2402.7,-1132.2 3967.4,-1345.6 2926.2,-399 6551.2,-47.9 10051.1,644.7 l 26.2,12.4 c -3344.5,-627 -6766.7,-926.4 -9557.5,-545.9 -1579.6,215.4 -2957.7,648.8 -4005.9,1363.7 -1051,716.7 -1770.3,1715.8 -2029.4,3061.1 -129.2,670.6 -143.8,1427.3 -27.9,2277.6 648.7,4757.2 519.4,6766 -2463.4,7172.7 -2324.5,316.9 -6374.7,-327 -13115.9,-1398.6 -1456.7,-231.6 -3039.3,-483.2 -4765.6,-750.6 C 9215.29,21122.9 3689.41,24244.9 0,28391.5 v 101.7 c 3678.12,-4161 9197.9,-7306.1 17352.9,-6042.7 1715.8,265.8 3303.8,518.3 4765.4,750.6 6747.3,1072.7 10801.1,1717.1 13135,1398.9 3040.7,-414.6 3175.3,-2443.5 2520.2,-7247.1 -114.9,-842.9 -100.5,-1592.5 27.3,-2256.3 255.5,-1326.6 965.2,-2312 2001.7,-3018.9 1039.3,-708.8 2407.6,-1138.8 3977.4,-1352.8 2852.2,-388.9 6367.9,-65.3 9784.8,592.6 l 33,15.6 c -3261,-594 -6578.4,-868.4 -9296.7,-497.8 -1585.1,216.2 -2967.4,651.8 -4017,1371.2 -1052.3,721.1 -1770.5,1727 -2024.1,3081.7 -124.3,663.8 -137,1411.3 -22.6,2249.9 648.7,4757.2 519.3,6765.9 -2463.4,7172.6 -2324.5,317 -6374.8,-326.9 -13115.9,-1398.5 -1456.7,-231.6 -3039.4,-483.2 -4765.6,-750.7 C 9344.33,21237.2 3683.3,24739.1 0,29186.7 v 104.9 c 3670.81,-4462.4 9325.66,-7990.3 17882.3,-6664.7 1715.7,265.8 3303.8,518.3 4765.3,750.6 6747.4,1072.7 10801.2,1717.1 13135,1398.8 3040.8,-414.5 3175.3,-2443.4 2520.3,-7247 -113.4,-831.5 -100.9,-1572 22,-2228.9 250.1,-1335.9 958.5,-2327.9 1996.4,-3039.2 1040.7,-713.2 2413.3,-1145.5 3988.5,-1360.3 2778.4,-378.8 6186.5,-81.6 9519.5,542.3 l 25.7,12.2 19.7,9.3 c -3179.6,-562.4 -6396.6,-813.7 -9044.8,-452.6 -1590.3,216.8 -2976.5,654.7 -4027.3,1378.4 -1053.5,725.4 -1770.1,1737.5 -2018.4,3101.6 -119.6,657 -130.3,1395.5 -17.5,2222.4 648.7,4757.2 519.3,6765.9 -2463.5,7172.6 -2324.5,317 -6374.7,-326.9 -13115.8,-1398.5 C 21730.6,23257 20148,23005.4 18421.8,22737.9 9453.36,21348.5 3662.38,25271.3 0,30025.4 v 108.3 c 3648.58,-4769 9433.26,-8721.4 18411.7,-7330.4 1715.7,265.7 3303.7,518.3 4765.3,750.6 6747.3,1072.6 10801.1,1717.1 13135,1398.8 3040.8,-414.6 3175.3,-2443.4 2520.3,-7247 -111.8,-820.1 -101.3,-1551.7 17,-2201.9 244.8,-1345 951.7,-2343.3 1990.8,-3058.9 1041.8,-717.4 2418.1,-1151.7 3998.5,-1367.2 2707.9,-369.2 6013.6,-96.3 9265.1,495.2 l 52.2,24.6 c -3098.1,-531.8 -6216.7,-760.9 -8796.3,-409.2 -1595.7,217.6 -2985.8,657.6 -4038.1,1385.6 -1054.9,729.9 -1770.1,1748.7 -2013,3121.9 -114.8,649.8 -123.7,1379.3 -12.5,2195 648.7,4757.3 519.4,6766 -2463.4,7172.7 -2324.5,317 -6374.7,-326.9 -13115.9,-1398.5 -1456.7,-231.6 -3039.4,-483.2 -4765.6,-750.7 C 9538.57,21456 3625.06,25848.8 0,30913.2 v 115.6 c 3609.52,-5080.5 9515.08,-9509.4 18941,-8049.1 1715.8,265.7 3303.8,518.3 4765.4,750.6 6747.3,1072.6 10801.1,1717.1 13135,1398.8 3040.7,-414.6 3175.2,-2443.4 2520.2,-7247 -110.2,-808.6 -101.5,-1531.4 12.3,-2174.9 239.4,-1354.3 944.8,-2358.9 1985.2,-3078.9 1043.2,-721.6 2423.5,-1158.2 4009.3,-1374.4 2638.4,-359.8 5844.6,-109.7 9015.4,450.5 l 63.1,29.4 c -3019.4,-502.9 -6044.8,-711.7 -8558.2,-369 -1600.9,218.3 -2994.9,660.6 -4048.2,1392.7 -1056,734 -1769.8,1759.1 -2007.2,3141.3 -110.5,643.2 -117.6,1363.9 -7.9,2168.4 648.7,4757.3 519.3,6766 -2463.4,7172.7 -2324.5,317 -6374.8,-326.9 -13115.9,-1398.6 -1456.7,-231.5 -3039.4,-483.1 -4765.6,-750.6 C 9594.1,21559.1 3568.69,26482.3 0,31859 v 119.4 c 3551.35,-5392 9568.73,-10356.4 19470.4,-8822.3 1715.7,265.7 3303.8,518.3 4765.3,750.6 6747.4,1072.6 10801.1,1717.1 13135,1398.8 3040.8,-414.6 3175.3,-2443.4 2520.3,-7247 -108.7,-797.6 -101.7,-1511.8 7.7,-2148.6 234.1,-1363.1 938,-2374 1979.7,-3098 1044.3,-725.9 2428.3,-1164.6 4019,-1381.5 2572.5,-350.8 5685.1,-121.8 8778.1,409.3 l 70.5,32.4 c -2942.6,-475.4 -5878.2,-665.1 -8327.6,-331.1 -1605.9,219 -3003.6,663.3 -4058.3,1399.7 -1057.4,738.4 -1769.7,1769.6 -2001.8,3160.7 -106.2,636.6 -111.7,1348.7 -3.6,2142.2 648.7,4757.2 519.4,6766 -2463.4,7172.7 -2324.5,317 -6374.7,-326.9 -13115.8,-1398.6 -1456.8,-231.5 -3039.4,-483.2 -4765.7,-750.6 C 9617.23,21657 3490.65,27179.6 0,32863.9 v 127.5 c 3470.85,-5699.5 9587.51,-11272.1 19999.8,-9658.9 1715.7,265.7 3303.7,518.3 4765.3,750.6 6747.3,1072.6 10801.1,1717 13135,1398.8 3040.8,-414.6 3175.3,-2443.4 2520.2,-7247 -107.2,-786.8 -101.8,-1492.4 3.3,-2122.6 229,-1372.1 931.6,-2389.2 1974.3,-3117.4 1045.5,-729.9 2433.3,-1170.7 4029.3,-1388.3 2509,-342.1 5531.6,-132.9 8548.7,370.3 l 83.5,37.6 c -2870.3,-450 -5722.7,-622.6 -8112.2,-296.8 -1610.6,219.7 -3011.8,665.9 -4067.3,1406.2 -1058.4,742.2 -1769.3,1779.3 -1996.3,3178.7 -102.3,630.3 -106.3,1334.2 0.5,2117.4 648.7,4757.2 519.3,6766 -2463.4,7172.7 -2324.5,317 -6374.8,-327 -13115.9,-1398.6 -1456.7,-231.5 -3039.4,-483.2 -4765.6,-750.6 C 9601.15,21748.9 3387.16,27955.2 0,33935.5 v 136.4 c 3364.46,-5994.2 9566.22,-12261.5 20529.1,-10563.1 1715.8,265.8 3303.8,518.4 4765.4,750.7 6747.3,1072.6 10801.1,1717 13135,1398.8 3040.7,-414.6 3175.2,-2443.5 2520.2,-7247.1 -105.9,-776.6 -102.1,-1473.9 -0.8,-2098 224,-1380.3 925.1,-2403.1 1968.8,-3135.1 1046.4,-733.8 2437.7,-1176.5 4038.3,-1394.8 2450.3,-334.1 5390.6,-142.2 8337,335.5 l 91.3,40 c -2800.7,-426.2 -5574.5,-583.1 -7907.1,-265.1 -1615.4,220.2 -3020.1,668.4 -4076.8,1412.6 -1059.3,746 -1769,1788.8 -1991.3,3196.5 -98.5,624.2 -101.1,1320.2 4.4,2093.6 648.7,4757.2 519.3,6766 -2463.4,7172.7 -2324.5,316.9 -6374.8,-327 -13115.9,-1398.6 -1456.7,-231.5 -3039.4,-483.2 -4765.6,-750.6 C 9533.4,21832.8 3252.57,28832.6 0,35087.8 v 144.4 c 3226.4,-6265.7 9493.36,-13338.7 21058.5,-11547 1715.7,265.8 3303.8,518.4 4765.3,750.7 6747.3,1072.6 10801.1,1717 13135,1398.8 3040.8,-414.6 3175.3,-2443.5 2520.3,-7247.1 -104.6,-767.1 -102.2,-1456.8 -4.6,-2074.7 219.2,-1388.1 919.1,-2416.6 1964,-3152.4 1047.5,-737.7 2442.3,-1182.3 4047.5,-1401.2 2395.3,-326.7 5258.5,-150.8 8138,303.6 l 46.5,19.9 h 0.1 l 59.7,25.2 c -2738.2,-405.4 -5442.1,-548.8 -7724.2,-237.6 -1619.3,220.8 -3026.8,670.7 -4084.4,1418.1 -1060.1,749.3 -1768.7,1797.1 -1986.6,3211.8 -95.2,618.6 -96.5,1307.6 7.7,2072.5 648.7,4757.2 519.4,6766 -2463.4,7172.7 -2324.5,316.9 -6374.7,-327 -13115.9,-1398.6 -1456.7,-231.6 -3039.3,-483.2 -4765.6,-750.6 C 9402.5,21906.9 3079.83,29839.1 0,36329.1 v 156.6 c 3048.81,-6495.1 9353.63,-14519.5 21587.8,-12624.1 1715.8,265.8 3303.8,518.3 4765.4,750.7 6747.3,1072.6 10801.1,1717 13135,1398.8 3040.8,-414.6 3175.3,-2443.5 2520.2,-7247.1 -103.3,-758.1 -102,-1441 -7.7,-2053.9 214.9,-1395.1 913.6,-2428.5 1959.2,-3167.5 1048.3,-740.9 2446,-1187.2 4055,-1406.6 2347.5,-320.1 5144.9,-157.4 7966.7,277 l 81,33.2 0.1,0.1 36.4,14.8 c -2683.3,-387.3 -5326.4,-519.3 -7563.8,-214.1 -1622.7,221.2 -3032.7,672.6 -4091,1422.8 -1060.9,752.1 -1768.4,1804 -1982.5,3224.7 -92.6,614 -92.9,1297.1 10.4,2054.7 648.7,4757.2 519.3,6765.9 -2463.4,7172.6 -2324.5,317 -6374.8,-326.9 -13115.9,-1398.5 -1456.7,-231.6 -3039.4,-483.2 -4765.6,-750.6 C 9184.01,21967.4 2857.07,31024.4 0,37679.7 v 167.8 C 2820.15,31198.1 9125.83,22025.3 22117.2,24038 c 1715.7,265.8 3303.8,518.3 4765.3,750.6 6747.4,1072.6 10801.2,1717.1 13135.1,1398.9 3040.7,-414.7 3175.2,-2443.5 2520.2,-7247.1 -102.4,-750.9 -102.1,-1427.8 -10.4,-2036.1 211.2,-1401.3 909,-2438.8 1955.3,-3180.6 1049,-743.6 2448.9,-1191.2 4061.4,-1411.1 2307.7,-314.7 5050.3,-162.8 7823.3,255 46.4,18.1 91.1,35.3 133.4,51.4 -2639.3,-373.1 -5234,-496 -7435.9,-195.9 -1625.1,221.6 -3037,674 -4095.8,1426.2 -1061.5,754.2 -1768.3,1809.2 -1979.8,3234.1 -90.7,610.8 -90.3,1289.8 12.2,2042.2 648.8,4757.2 519.4,6765.9 -2463.3,7172.6 -2324.6,317 -6374.8,-326.9 -13115.9,-1398.5 -1456.8,-231.6 -3039.4,-483.2 -4765.6,-750.7 C 8845.52,22009.3 2567,32465.3 0,39158.4 v 186.2 c 2520.31,-6667 8768.95,-17280.2 22646.6,-15130.2 1715.7,265.8 3303.7,518.3 4765.3,750.6 6747.3,1072.6 10801.1,1717.1 13135,1398.9 3040.8,-414.7 3175.3,-2443.5 2520.3,-7247.1 -101.7,-745.9 -102.2,-1418.8 -12.3,-2023.8 208.7,-1405.4 905.7,-2446 1952.6,-3189.7 1049.5,-745.7 2451.4,-1194.3 4066.2,-1414.5 2280.1,-310.9 4984.7,-166.4 7723.7,240.2 l 108.1,38.4 h 0.2 l 49.9,17.4 c -2613.6,-364.9 -5180.2,-482.7 -7361.3,-185.3 -1625.5,221.6 -3037.7,674 -4096.7,1426.7 -1061.6,754.5 -1768.2,1810.2 -1979.3,3235.9 -90.4,610.2 -89.8,1288.4 12.6,2039.9 648.7,4757.2 519.3,6765.9 -2463.4,7172.6 -2324.5,317 -6374.7,-326.9 -13115.9,-1398.5 -1456.7,-231.6 -3039.3,-483.2 -4765.6,-750.7 C 8907.81,22113.3 2680.49,33363.1 281.727,40000 Z M 59279.9,13169.6 l -6,-1.1 -19.9,-9.4 6.3,1.2 z m -261.9,-49.1 -2.4,-0.4 -30,-14.2 2.8,0.6 z m 1040.7,270.8 7.1,1.5 64.9,30.9 -4.5,-0.3 z m 570.5,120.6 5.4,1.2 194.7,92.2 h -4 l -31,-14.8 z m 293.8,64.5 1.6,0.4 61.8,29 h -1.4 z m 8913,2957.5 148.2,69.6 h -1.4 z m 289,136 231.7,109.7 -4.1,-0.1 -29.2,-13.9 -200.9,-95.6 z m 377.9,179.1 215.5,102.5 -4.7,-0.2 -215,-102.3 z m 369,175.6 196.7,93.6 -2.8,-0.2 -197.7,-93.4 z m 360.2,171.3 47.2,22.4 -47.9,-22.4 z m -47104.2,3634.3 c -1593.6,217.3 -3998.6,-17 -7525.4,-531.2 3241.6,460.4 5488.5,660.6 7009.2,453.2 1535.4,-209.3 2337.6,-827.6 2673.5,-2001.3 333.4,-1164.9 203.2,-2876.9 -124.9,-5282.9 -72.7,-533.4 -93.4,-1029.4 -66.2,-1489.6 28,-472.5 106.7,-907.6 231.5,-1307.1 172.8,-553.4 434.9,-1039.2 774,-1462.6 354.8,-443.2 794.3,-818.6 1304.8,-1133 489.1,-301.1 1043.9,-546.7 1652.3,-742 639.6,-205.4 1338.3,-355.6 2082.2,-457 1872.5,-255.2 4031.9,-203 6261.5,49.5 514.9,58.3 1033.6,127.4 1553.2,205.7 -2592.3,-358.2 -5135.4,-472 -7298.9,-177.1 -1510.1,205.9 -2836,611.1 -3865.6,1270.8 -1032.1,661.5 -1766.7,1578.6 -2091,2807.2 -198.9,753.7 -243.2,1624.4 -106.8,2624.7 648.7,4757.3 519.3,6766 -2463.4,7172.7 z M 46205.2,8404.7 v -0.1 l -5.5,-1.5 c -1305.7,-357.8 -2682.6,-686.8 -4078.2,-961 2041.4,401.1 4042.1,919.1 5839.7,1473.4 -258,-79.5 -521.5,-158.7 -789.6,-237.2 -314,-91.8 -636.3,-183.2 -966.1,-273.6 z m 4084.9,1349.3 0.6,0.3 3.2,1.3 h 0.1 l 92.6,38.3 v 0.1 l 51.3,21.4 h -0.1 l -121.8,-50.6 h -0.2 l -122.3,-50.2 -0.1,-0.1 -7.5,-3.1 17.1,7 0.1,-0.1 86.4,35.4 v 0.1 z m 4492.9,1955.6 -32,-15.1 1.8,0.4 31.3,14.8 z m -273.5,-128.9 -18.6,-8.8 5.3,1 18.1,8.6 z m -263.2,-124.8 -11.3,-5.4 6.7,1.4 11.1,5.3 z m 5864,2033.6 h 0.4 l 24.4,11.6 z m 166.8,5.5 3.5,0.1 200.2,95.2 -2.3,-0.2 z m 160.1,1.2 4.2,-0.1 219.4,104.4 -4.5,-0.2 z m -486.7,-82.7 -2.3,-0.2 -123.9,-58.5 3.2,0.1 z m -4639.9,-1528.3 -29.1,-13.7 1,0.2 28.4,13.6 z m -270.6,-127.5 -22,-10.4 5,1 21.5,10.3 z m -266.2,-126.1 -8.3,-4 6.9,1.5 8,3.8 z m -256.7,-122.1 -0.6,-0.2 6.7,1.4 0.3,0.1 z m 6123.4,2156.9 h 0.4 l 34.6,16.4 z m 166.6,5.4 3.7,0.1 198.4,94.5 -2.4,-0.2 z m 160.3,1.1 h 4.2 l 217.9,103.8 -4.5,-0.3 z m 151.9,-3.2 2.4,-0.1 236.1,111.8 h -3.8 l -30.4,-14.4 z m -5279.1,-1607.7 -31,-14.6 3.6,0.7 30.4,14.5 z m -273.2,-128.8 -19,-8.9 7.3,1.4 18.6,8.8 z m -262.8,-124.6 -11.2,-5.4 8.9,1.8 10.9,5.2 z m 5865.1,2034 h 0.4 l 31.9,15.1 z m 166.8,5.5 3.7,0.1 198.7,94.5 -2.6,-0.1 z m 160.1,1 h 4.1 l 218.5,104 -4.3,-0.2 z m 152,-3.1 2.4,-0.1 237.2,112.3 -3.9,-0.1 -31.1,-14.7 z m -133,-63.9 h -1.4 l -136.5,-64.8 z m -5146.1,-1544.4 -28,-13.1 2.3,0.4 27.4,13 z m -269.6,-127.1 -21,-10 5.9,1.2 20.7,9.9 z m -265.6,-126 -8.6,-4 7.7,1.6 8.3,3.9 z m -256.5,-122 -0.4,-0.1 7.6,1.6 m 6114.2,2155 h 0.5 l 39.7,18.9 z m 166.5,5.4 3.7,0.1 198.9,94.7 -2.4,-0.2 z m 160,1 h 4.1 l 218.9,104 -4.6,-0.2 z m 152.2,-3 2.6,-0.2 237.2,112.3 h -4 l -31.1,-14.8 z m -133,-64.1 h -1.6 l -146.1,-69.4 z m -5143.8,-1543.4 -31.7,-14.8 1.4,0.2 31.1,14.8 z m -273.6,-129 -18,-8.5 5,1.1 17.6,8.3 z m -262.3,-124.3 -10.6,-5 6.7,1.3 10.4,4.9 z m 5863.5,2034 h 0.3 l 24.3,11.4 z m 166.9,5.5 3.8,0.1 198.5,94.5 -2.5,-0.2 z m 159.8,0.8 h 4.1 l 218.5,104 -4.6,-0.2 z m 152.5,-3 h 2.7 l 236.6,112 h -4.2 l -30.9,-14.7 z m -133.2,-64 h -1.6 l -160.4,-76.2 z m -5144.9,-1543.7 -30.3,-14.2 1.5,0.2 29.6,14.2 z m -272,-128.2 -21.3,-10.1 5.3,1.1 20.8,9.9 z m -266.1,-126.2 -7.5,-3.5 6.9,1.4 7.3,3.5 z m 5866.1,2035.2 h 0.6 l 39.4,18.7 z m 167.3,5.6 h 3.8 l 198.8,94.6 -2.7,-0.2 z m 159.6,0.7 h 4.3 l 218.9,104.1 -4.9,-0.3 z m 152.8,-3 h 2.8 l 237.1,112.2 -4.4,-0.1 -31.3,-14.8 z m -133,-64.1 h -1.9 l -188.8,-89.5 z m -5147.4,-1544.3 -29.3,-13.8 1.9,0.4 28.8,13.6 z m -270.4,-127.5 -20.4,-9.7 5.6,1.1 20.1,9.5 z m -264.3,-125.4 -10.8,-5.1 7.2,1.5 10.4,4.9 z m 5864.7,2034.3 0.8,0.1 49.8,23.6 z m 167.3,5.6 4,0.1 199.3,94.8 -3,-0.2 z m 160,0.9 h 4.6 l 219.2,104.2 -5.1,-0.2 z m 152.8,-3.1 1.5,-0.1 237.5,112.5 -3,-0.1 -31.9,-15.1 z m -134,-64 h -0.6 l -48.5,-23 z m -5146.5,-1544.2 -30.7,-14.4 2.7,0.5 29.8,14.2 z m -272.5,-128.5 -19,-9 6.1,1.2 18.7,8.9 z m -262.7,-124.6 -9.9,-4.8 7.5,1.6 9.8,4.6 z m 5865.4,2034.5 h 0.9 l 64.4,30.6 z m 167,5.4 4.4,0.1 199,94.8 -3.1,-0.2 z m 160.6,1 h 3.1 l 219,104.1 -3.4,-0.1 z m 151.1,-3.2 h 1.7 l 237.5,112.4 -3.4,-0.1 -31.2,-14.9 z m -133.4,-63.7 h -0.8 l -73.3,-34.9 z m -5417.6,-1672.5 -20.7,-9.9 6.2,1.3 20.4,9.7 z m -264.9,-125.7 -8.9,-4.2 7.6,1.5 8.7,4.2 z m 5867.2,2035.2 0.9,0.1 79.1,37.5 z m 166.8,5.3 h 2.6 l 199.3,94.8 -1.6,-0.1 z m 159.4,1.1 h 3.5 l 218.9,104.2 -3.7,-0.2 z m 151.3,-3.2 2.3,-0.1 237.1,112.2 h -4 l -30.7,-14.6 z m -132.6,-63.7 h -1.3 l -130.1,-61.6 z m -5681.7,-1797.8 -10.3,-5 7.4,1.6 10.2,4.8 z m 6032.3,2040.1 2.8,0.1 199.1,94.6 -1.7,-0.1 z m 159,0.9 h 4.2 l 219.2,104.2 -4.7,-0.2 z m 152.8,-2.9 3.7,-0.1 236.8,112.2 h -5.2 l -31,-14.8 z m -131.8,-63.9 h -2.6 l -232.9,-110.5 z m 349.1,242.6 h 3.7 l 199,94.7 -2.6,-0.2 z m 159.5,0.7 5.4,-0.1 218.9,104.2 -5.7,-0.2 z m 153.3,-3.2 3.3,-0.1 237.6,112.5 -5,-0.1 -31.7,-15.1 z m -131.8,-63.8 h -2.4 l -205.5,-97.5 z m 181.3,237.1 h 0.6 l 35.2,16.8 z m 166.6,5.4 5,0.1 196.9,93.7 -4.1,-0.4 z m 161.6,1.1 h 5.1 l 215.9,102.8 -5.5,-0.4 z m 153,-3.1 2.4,-0.2 233.9,110.7 h -4.2 l -28.8,-13.8 z m -132.7,-63.9 h -1.5 l -150,-71.2 z m 181.9,237.4 1.8,0.1 128.4,60.9 z m 167.9,5.5 4.7,0.1 196,93.2 -3.8,-0.3 z m 161.2,1 h 4.1 l 215.2,102.3 -4.7,-0.2 z m 153.1,-2.7 2.4,-0.2 232,109.9 -4.1,-0.1 -29.1,-13.8 z m -138.3,-66.5 h -1.6 l -146.3,-69.5 z m 186.7,239.2 h 1.5 l 101.5,48.2 z m 167.6,5.4 3.8,0.1 196.1,93.3 -2.7,-0.2 z m 160.3,1.1 4.2,-0.1 215.1,102.3 -4.7,-0.2 z m 153.2,-2.8 2.4,-0.1 231.8,109.8 -4.1,-0.1 -29,-13.8 z m -138.3,-66.4 h -1.6 l -146.5,-69.6 z m 187.7,239.2 h 0.6 l 48.2,22.9 z m 166.6,5.4 h 3.8 l 196.2,93.3 -2.8,-0.2 z m 160.2,0.9 h 4.2 l 215.4,102.4 -4.7,-0.2 z m 153.2,-2.7 2.4,-0.1 232.1,109.9 -4.1,-0.1 -29.3,-13.9 z m -138.3,-66.4 h -1.5 l -146.6,-69.6 z m 187.8,239.2 0.6,0.1 48.1,22.8 z m 166.6,5.4 3.8,0.1 196.2,93.3 -2.7,-0.2 z m 160.3,1.1 4.2,-0.1 215.3,102.4 -4.7,-0.2 z m 153.1,-2.8 2.4,-0.1 232.1,109.8 h -4.1 l -29.5,-14 z m -138.2,-66.4 h -1.6 l -146.7,-69.7 z m 187.7,239.2 h 0.7 l 47.8,22.8 z m 166.6,5.4 h 3.8 l 196.1,93.3 -2.8,-0.2 z m 160.3,1 h 4.2 l 215.1,102.3 -4.7,-0.2 z m 153.1,-2.7 2.4,-0.1 231.9,109.7 h -4 l -29.5,-14 z m -138.2,-66.5 h -1.5 l -147,-69.7 z m 187.6,239.2 h 0.6 l 47.9,22.8 z m 166.6,5.3 3.8,0.1 195.9,93.2 -2.8,-0.2 z m 160.2,1.1 4.2,-0.1 215,102.3 -4.7,-0.3 z m 153.2,-2.7 2.5,-0.2 231.7,109.8 -4.1,-0.1 -29.3,-14 z m -138.3,-66.5 h -1.4 l -147,-69.7 z m 187.6,239.1 0.6,0.1 48,22.7 z m 166.6,5.4 3.8,0.1 195.7,93.1 -2.7,-0.3 z m 160.2,1 h 4.2 l 214.9,102.2 -4.7,-0.2 z m 202.4,170 h 0.7 l 48,22.8 z m 166.7,5.4 h 3.7 l 196.5,93.5 -2.8,-0.2 z m 363,171.1 h 0.7 l 47.7,22.7 z m -15116.8,-5155.1 -7.3,-1.5 M 5711.96,18537.3 c -1242.55,-192.5 -2424.53,-283.7 -3547.22,-283 1122.69,-0.7 2304.67,90.5 3547.22,283 z m 16931.44,2224.4 c -128.5,4 -260.9,6 -397.4,6.1 136.5,-0.1 268.9,-2.1 397.4,-6.1 z m -398.9,6.1 c -2151.8,2.1 -5309,-458.7 -9847,-1175.3 4538,716.5 7695.2,1177.3 9847,1175.3 z m 3976.9,-2035.1 c -322.5,1127.2 -1088.8,1729.7 -2548.4,1944 1460.9,-214.7 2227.9,-824.9 2550.9,-1968.8 286.1,-1013.6 220.4,-2446.2 -20.3,-4396.2 242.6,1964.2 308.4,3405.7 17.8,4421 z M 26028,11974.6 c -2.6,43.4 -4.7,87 -6.5,131 m -1.7,49.6 c -2.3,72.2 -3.5,145.2 -3.5,219 0,-73.8 1.2,-146.9 3.5,-219 z m 1.4,483.9 c 1.7,45.6 3.7,91.5 6.2,137.8 -2.5,-46.3 -4.5,-92.2 -6.2,-137.8 z m 229.3,-1949.5 c -8.6,28.2 -16.9,56.6 -25,85.2 8.1,-28.6 16.4,-56.9 25,-85.2 z m -79.3,292.9 c -15.1,63.1 -29,127.2 -42,192 13,-64.8 26.9,-128.8 42,-192 z m -45,207.2 c -8.7,44.4 -16.9,89.2 -24.6,134.4 7.7,-45.2 15.9,-90 24.6,-134.4 z m -25.6,140 c -35,206.9 -59.4,421.8 -72.6,644.9 m 1019.9,-2807.5 c -248.8,310.8 -456.7,654.5 -619.1,1033.1 162.4,-378.5 370,-721.9 618.3,-1032.2 163.1,-203.8 343.8,-393.4 540.9,-569.5 -196.7,175.8 -377.2,365.2 -540.1,568.6 z m -634.5,1069.4 c -9.9,23.7 -19.6,47.5 -29.2,71.4 9.6,-23.9 19.3,-47.7 29.2,-71.4 z m 1334.9,-1775.3 c -25.5,21 -50.9,42.2 -75.9,63.5 25,-21.3 50.4,-42.5 75.9,-63.5 z m 950.7,-631.1 c -27.9,14.9 -55.6,30 -83.1,45.3 27.5,-15.3 55.3,-30.4 83.1,-45.3 z m 13264.2,-418.8 c -148.1,-28.6 -296.5,-56.7 -444.9,-84 148.5,27.3 296.8,55.4 444.9,84 z m 6158.5,1554 v 0 m 42.4,13.2 -42.4,-13.2 m 42.5,13.2 h -0.1 m 293.1,93.9 -22,-7.3 56.6,18.6 z m 809.9,282.2 v 0 c 95.5,35.1 190.8,70.8 285.5,106.9 l -134.9,-51 h -0.1 z m 287,107.5 -0.1,-0.1 136,52.3 h -0.2 z m 256.2,99.1 -101.6,-39.7 76.1,29.7 z m 305.8,121.9 -5.2,-2.1 5.2,2 z m -151.4,-60.8 -14.5,-5.8 v -0.1 z m 563.9,231.1 -79,-33.2 29.5,12.4 v -0.1 z m 28.4,12 v 0 l 113.9,48.1 v 0 l 100.4,42.9 v 0.1 l 22,9.4 h -0.2 l -117.3,-50.2 h -0.1 z m 353.1,150.9 -113.4,-48.9 74.9,32.3 0.1,-0.2 c 62,26.8 129.8,56.4 203.3,88.6 v 0.1 l 103,45.4 102.7,45.5 v 0 l 211.5,94.7 7.1,3.2 h -0.1 l -117.9,-52.9 -117,-52.2 -0.1,-0.1 -117,-51.7 h -0.1 l -118.2,-52 -118.7,-51.6 z m 825.5,368 -91.9,-41.9 63.8,29 v -0.1 l 216.5,99.2 v 0.1 l 49,22.6 h -0.1 l -118.5,-54.5 -118.6,-54.3 z m 355.5,163.7 -93.1,-43.2 148.5,68.7 v -0.1 l 225.9,105.5 228.1,107.2 7.6,3.6 v 0.1 l 227.6,107.5 216.7,102.9 21.6,10.3 242.9,115.6 v 0 l 10.3,4.9 h -0.1 l -253.1,-120.4 -77.3,-36.7 -174.1,-82.6 -246.1,-116.3 -24.3,-11.5 h -0.1 l -218.8,-102.7 v -0.2 l -242,-112.6 z m 1348.9,636.8 v 0 l -70.5,-33.6 h 0.1 l 125.8,59.8 v 0.1 l 72.1,34.3 h 0.1 l 253.8,120.6 117.7,55.8 147,69.4 h 0.1 l 269.5,126.7 29.3,13.8 0.1,0.1 252.6,117.3 h 0.1 l 197.4,90.7 92.8,42.4 0.2,0.2 153.2,69.3 h 0.1 l 152.6,68.3 h 0.1 l 57.8,25.7 v 0.1 l 117.2,51.7 -93.3,-41 v -0.1 l -83.3,-36.9 v 0.1 l -116.4,-52.1 v -0.1 l -116.9,-52.7 v 0.1 l -221.7,-101.1 -78.6,-36.1 v 0 l -145.1,-67.2 v 0 l -146,-68 -0.1,0.1 -79.2,-37 -200.6,-94.2 v -0.1 l -244.7,-115.7 -29.5,-14 -264.6,-125.7 z m 2041.6,944.5 v -0.1 l -58.9,-25.8 h 0.1 l 130.2,56.6 h 0.2 c 69.6,30.2 138,59.5 204.8,87.8 v 0.1 l -61.6,-26.1 v 0 l -50.1,-21.4 v 0.1 z m 368.1,157.4 -72.2,-30.6 95.6,40.2 -23.4,-9.7 z m 153,63.5 v 0 l -9.7,-4 74.6,30.5 c 48.1,19.6 105.7,42.8 169.3,68.2 l 30.6,12.1 0.2,0.1 102.7,40.5 h 0.1 l 102.6,39.7 0.1,0.2 101.7,38.7 h 0.2 l 101.4,37.8 0.1,0.2 56.9,20.9 h 0.2 l 107.8,39.1 -25,-8.9 -75.9,-27.4 v -0.1 l -76.3,-28.2 v 0.1 c -39.7,-14.8 -82.8,-30.9 -138,-51.9 h -0.1 c -47.9,-18.2 -94.4,-36.2 -138.4,-53.2 v -0.1 l -107.2,-42.2 v 0.1 l -108.4,-43.2 v -0.1 l -84.8,-34.3 v 0.1 z m 924.9,354.7 v 0 l -5.6,-2 15.3,5.3 z m 110.4,38.5 -15.2,-5.3 15.3,5.2 86.5,29 31.9,10.5 v 0.1 l 31.1,10.5 9,3 -17,-5.6 v 0.1 l -70.6,-23.4 v -0.1 l -71,-24.1 z m 688.7,215.9 v 0 l -72.2,-20.7 56.6,16 h 0.3 l 74.4,20.8 v 0 l 24.6,6.9 0.4,0.2 68.1,18.3 h 0.2 l 68,17.8 c 47.2,12.1 93,23.8 136.5,34.5 45.6,11.3 91.2,22.1 136.2,32.4 h 0.3 l 98.9,22.1 0.2,0.2 98.7,21 h 0.2 l 50.7,10.6 0.3,0.1 c 34.4,6.8 72.9,14.3 115.5,22.1 42.1,7.7 80.3,14.6 115.2,20.5 32.5,5.6 69.6,11.7 109.4,17.9 40.5,6.3 76.6,11.7 109,16.3 29.4,4.2 61.4,8.6 96.6,13.1 36,4.6 67.9,8.6 96.7,11.9 h 0.2 l 14.1,1.6 c 30.8,3.4 63.7,6.9 98.4,10.4 h 0.2 l 97.8,9 0.3,0.1 74.5,6.2 h 0.6 l 74.5,5.2 h 0.7 l 35.6,1.8 c 28.4,1.6 57.5,3.2 87.9,4.5 28.4,1.2 58,2.4 87.7,3.2 h 0.1 l 82.4,2 h 0.3 c 27.2,0.5 54.9,0.8 82.6,0.9 h 0.4 l 22.5,-0.3 53,-0.5 h 0.2 l 53,-0.9 23.7,-0.3 h 0.6 l 58.3,-1.9 h 0.3 l 58.3,-2.5 24.7,-1.1 h 0.3 l 65.5,-3.6 h 0.4 l 65.4,-4.2 h 0.7 l 22.2,-1.9 0.3,-0.1 h 0.2 v 0.1 c 30.3,-2.3 60.3,-4.5 96.5,-7.9 l 13.8,-1.3 h 0.2 l 27.9,-2.7 h 0.6 l 36.3,-4.3 h 0.1 l 26.1,-3.1 40.9,-4.9 13.3,-1.5 h 0.3 l 37,-4.4 0.4,-0.1 34.1,-4.5 0.8,-0.1 40.3,-6.3 v 0.1 l 21.6,-3.3 0.1,-0.1 36.4,-5.6 10.2,-1.6 28.9,-4.5 v 0.1 l 4,-0.6 0.2,-0.2 13.2,-2 h 0.4 c 468.4,-79.3 931.5,-223.6 1390,-444.5 458.3,-220.7 912.4,-518.2 1363.6,-903.9 116.1,-99.3 232.2,-204.4 348,-315.7 115,-110.3 230.7,-227.7 346.8,-351.9 h 0.2 c 85.8,-91.8 172.2,-187.8 258.7,-287.3 86.8,-100.1 173.1,-203.1 258.3,-308.8 70.4,-87.2 141.5,-178 213,-272 70.3,-92.3 141.4,-188.4 213,-287.5 62,-86 123.8,-173.6 185.1,-262.5 60.9,-88.4 122.6,-180 185,-274.6 l 0.1,0.1 c 57.1,-86.6 112.6,-172.3 166.4,-257 53.6,-84.6 108.5,-172.6 164.4,-264.2 50.9,-83.3 101.4,-166.8 151.1,-250.5 45.5,-76.7 90.7,-154 135.2,-231.6 -30.6,53.5 -60.9,105.9 -91,157.3 -47.3,80.8 -96.8,164 -148.2,248.9 -54.2,89.8 -108.3,177.7 -161.7,263.2 -55.4,88.6 -109.5,173.6 -161.6,253.7 -60.6,93.1 -120.6,183.4 -179.8,270.6 -59.4,87.5 -119.9,174.6 -181.2,261 -69.5,97.9 -138.6,192.4 -207,283.7 -68.3,91.2 -137.5,181 -207.1,269.1 -82.5,104.6 -164.6,205.4 -246,301.9 -81.7,97.1 -163.9,191.3 -246.1,282 -106.3,117.3 -213.9,230.1 -322.3,338.3 -107.5,107.3 -215.3,209.4 -323,306.4 -192.4,173.2 -385.2,330.3 -578.1,471.5 -192.6,141 -386.4,266.9 -581,378.4 -231.1,132.2 -462.7,243.7 -694.9,336.1 -232.8,92.5 -466.7,166.3 -701.6,222.6 -34.1,8.2 -71.9,16.8 -112.5,25.5 -37.6,8.1 -75.3,15.8 -112.7,23 l -3.4,0.6 h -0.1 l -17.3,3.3 h -0.2 l -9.5,1.9 v 0.1 l -31.4,5.9 -8.3,1.6 v 0 l -50.5,8.9 -3.2,0.5 -0.8,0.1 -53.1,8.2 h -0.1 l -19.9,3 -1.2,0.2 -1.5,0.3 -22.9,3.7 h -0.2 c -20.8,3.3 -42,6.7 -63.7,9.6 l -1.1,0.1 -0.7,0.2 c -21.7,2.8 -46.3,5.6 -71,8.4 l -31.9,3.6 h -0.2 l -13.2,1.5 c -35.5,4.1 -70.3,8.1 -100.7,11 v -0.1 l -48.4,3.9 -23.4,2 -55.5,4.3 v 0.1 l -57.7,3.7 -57.8,3.1 -21.1,1 -73.2,3 -73,2.1 -53.9,0.8 -53.8,0.4 -46.2,0.4 -32,-0.7 h -0.1 l -66.2,-1 -66.2,-1.7 c -27.7,-0.9 -56.3,-2.1 -85.9,-3.5 l -86.5,-4.7 c -28.3,-1.7 -58,-3.8 -89.4,-6.1 h -0.2 c -27.9,-2 -58.4,-4.6 -89.8,-7.2 v 0.1 l -92.3,-8.7 v -0.1 l -93,-9.9 v 0 l -72.5,-8.7 v 0.1 l -72,-9.2 v -0.1 l -46.4,-6.4 v 0 l -97.4,-14.4 c -34.5,-5.2 -67.2,-10.5 -97.2,-15.4 l -98,-17 v 0.1 l -97.5,-18 v -0.1 l -96,-18.9 v 0.1 l -95.6,-20 -41.6,-8.9 v 0 l -66.2,-14.7 v -0.1 l -66.6,-15.3 v -0.1 l -40.9,-9.7 h -0.1 l -31.3,-7.3 -49.6,-11.8 v 0.1 c -54.7,-13.6 -111.1,-28.2 -168.8,-43.6 -57.4,-15.3 -114.3,-31 -170,-46.8 z m 8766.2,-5057.8 c -88.3,164.7 -177.8,327.1 -268.5,487.1 m 396.4,-729 c -42.4,81.3 -85.1,161.9 -127.9,241.9 m 255.7,-490.1 c -47.2,92.6 -89.7,175.1 -127.8,248.2 m 247.8,-487.1 c -38.2,77.1 -78.2,156.4 -120,238.9 m 240.1,-483.6 c -40,82.4 -80.2,164.2 -120.1,244.7 m 234.1,-481.8 c -40.1,84.2 -78.3,163.6 -114,237.1 m 227.9,-479.1 c -38.2,82 -76.3,162.9 -113.9,242 m 222.6,-476.9 c -30.6,66.8 -67.3,146 -108.7,234.9 m 217.2,-474.5 c -36.5,81.6 -72.8,161.5 -108.5,239.6 m 212,-472.7 c -37.1,84.3 -71.7,162.1 -103.5,233.1 m 206.9,-470.6 c -35,81.3 -69.6,160.5 -103.4,237.5 m 103.6,-237.5 h -0.2 m 99.2,-231.4 c -33.6,79.3 -66.8,156.7 -99,231.4 m 133.2,-312.3 -34.2,80.9 m 828.3,-2088.3 c -32.4,87 -64.9,173.4 -97.2,259.2 l 85.1,-226.9 c 120.6,-324.1 241.3,-656.6 361.8,-997.7 -117.2,332 -233.8,653.7 -349.7,965.4 z m -854.4,2148.9 60.3,-141.5 m -160.3,373.6 c 36.1,-83.2 70.2,-162.1 100,-232.1 m -204.4,470.4 c 31,-70.1 65.7,-149.1 104.4,-238.3 m -208.8,472.2 c 35.3,-78.6 70.2,-156.5 104.4,-233.9 m -214,474.3 h 0.1 c 36.8,-80 73.4,-160.3 109.5,-240.4 m -218.9,475.9 c 36.8,-78.3 73.3,-157 109.3,-235.5 m -224.2,478.3 c 38.4,-80.4 77,-161.6 114.9,-242.8 m -229.8,480.4 c 38.5,-78.5 76.8,-157.8 114.9,-237.6 m -236,483.3 c 36,-72.1 76.9,-155 121.1,-245.7 m -242.5,485.6 c 43.7,-85.2 84.1,-165.1 121.4,-239.9 m -251.2,489.4 c 42.4,-80.3 85.7,-163.3 129.8,-249.5 m -259.6,492.5 c 43,-79.6 86.3,-160.5 129.8,-243 m -268,496.2 c 43.8,-79.2 90,-163.9 138.2,-253.2 M 26028,11972.8 c 13.2,-222.5 37.6,-436.8 72.6,-643.1"
         style="display:inline;fill:#acb9ca;fill-opacity:1;fill-rule:evenodd;stroke:none"
         transform="matrix(0.13333333,0,0,-0.13333333,0,5333.3333)" /><path
         id="path5"
         d="m 17565.9,40000 c 581.6,-3793.1 2780.5,-9339.7 10756.8,-8307.4 3946.8,510.7 6758.8,1313.3 9028.3,1961 4606.5,1314.7 6983.2,1993 12075.2,-1684.5 3541.8,-2558 6838.1,-3737.2 9774.1,-3895.3 2840.5,-152.9 5344.2,650 7407.6,2084.4 -1994.6,-1276.1 -4372.8,-1976.5 -7048.2,-1832.6 -2945.2,158.6 -6250.7,1340.7 -9801.1,3904.9 -5072,3663.1 -7440.8,2987 -12031.9,1676.7 C 35455.8,33259.1 32642.1,32456.1 28691,31944.8 20874.6,30933.3 18577.8,36203.9 17925.7,40000 h 51.6 c 651.7,-3777.7 2940.4,-9010.3 10707.3,-8005.1 3946.8,510.7 6758.8,1313.3 9028.3,1961 4606.5,1314.7 6983.2,1993 12075.2,-1684.5 3541.8,-2558 6838.1,-3737.2 9774.1,-3895.3 2840.5,-152.9 5344.3,650 7407.6,2084.4 -1994.6,-1276.1 -4372.7,-1976.6 -7048.2,-1832.6 -2945.1,158.6 -6250.7,1340.7 -9801,3904.9 -5072,3663.1 -7440.9,2987 -12031.9,1676.7 -2271,-648.1 -5084.7,-1451.1 -9035.8,-1962.4 -7610.8,-984.9 -9988.4,3986.3 -10710.3,7752.9 h 51.9 c 721.4,-3747.5 3090.3,-8681.4 10652.1,-7702.8 3946.8,510.7 6758.8,1313.3 9028.2,1960.9 4606.6,1314.8 6983.2,1993.1 12075.3,-1684.4 3541.7,-2558 6838.1,-3737.2 9774.1,-3895.3 2840.5,-152.9 5344.2,650.1 7407.6,2084.4 -1994.7,-1276.2 -4372.8,-1976.5 -7048.2,-1832.6 -2945.2,158.6 -6250.7,1340.7 -9801.1,3904.9 -5072,3663.1 -7440.8,2987 -12031.9,1676.7 C 36179.7,33863.7 33366,33060.7 29414.9,32549.4 22006,31590.7 19556.5,36276.1 18765.8,40000 h 52 c 790.2,-3704.2 3230.7,-8353 10590.7,-7400.5 3946.8,510.7 6758.8,1313.3 9028.3,1960.9 4606.5,1314.8 6983.2,1993.1 12075.2,-1684.4 3541.8,-2558 6838.1,-3737.2 9774.1,-3895.3 2840.5,-152.9 5344.4,650.1 7407.6,2084.4 -1994.7,-1276.1 -4372.8,-1976.5 -7048.2,-1832.6 -2945.1,158.6 -6250.7,1340.7 -9801,3904.9 -5072.1,3663.1 -7440.9,2987 -12032,1676.7 -2270.9,-648.1 -5084.6,-1451.1 -9035.7,-1962.4 -7209.6,-932.9 -9723,3478.8 -10581.6,7148.3 h 52.4 c 858.1,-3649.1 3361.9,-8024.9 10522.8,-7098.2 3946.9,510.7 6758.9,1313.3 9028.3,1961 4606.6,1314.7 6983.2,1993 12075.2,-1684.5 3541.8,-2557.9 6838.1,-3737.2 9774.1,-3895.3 2840.6,-152.9 5344.3,650 7407.7,2084.4 -1994.7,-1276.2 -4372.8,-1976.5 -7048.3,-1832.6 -2945.1,158.6 -6250.6,1340.7 -9801,3904.9 -5072,3663.1 -7440.9,2987.1 -12031.9,1676.7 -2271,-648.1 -5084.7,-1451.1 -9035.7,-1962.4 -7012.6,-907.4 -9582.1,3241.7 -10507.4,6846 h 52.7 c 924.6,-3583.3 3484.1,-7697.2 10448.3,-6795.9 3946.8,510.7 6758.8,1313.3 9028.3,1961 4606.5,1314.7 6983.2,1993 12075.2,-1684.5 3541.8,-2557.9 6838.1,-3737.2 9774.1,-3895.3 2840.5,-152.9 5344.3,650 7407.6,2084.4 -1994.6,-1276.1 -4372.8,-1976.6 -7048.2,-1832.5 -2945.2,158.5 -6250.7,1340.6 -9801.1,3904.8 -5072,3663.1 -7440.8,2987 -12031.9,1676.7 -2270.9,-648.1 -5084.6,-1451.1 -9035.7,-1962.4 -6817.2,-882.2 -9435.3,3014.5 -10426.1,6543.7 h 53.1 c 989.9,-3507.6 3597.6,-7369.6 10366.6,-6493.6 3946.9,510.7 6758.8,1313.3 9028.3,1961 4606.6,1314.7 6983.2,1993 12075.2,-1684.5 3541.8,-2558 6838.1,-3737.2 9774.1,-3895.3 2840.5,-152.8 5344.3,650.1 7407.7,2084.4 -1994.7,-1276.1 -4372.8,-1976.6 -7048.3,-1832.5 -2945.1,158.5 -6250.7,1340.6 -9801,3904.8 -5072,3663.1 -7440.9,2987 -12031.9,1676.8 -2271,-648.2 -5084.7,-1451.2 -9035.7,-1962.5 -6623.1,-857 -9282.8,2796.4 -10337.5,6241.4 h 53.6 c 1053.7,-3422.7 3702.5,-7042.2 10277.5,-6191.3 3946.8,510.7 6758.8,1313.3 9028.2,1961 4606.6,1314.7 6983.3,1993 12075.3,-1684.5 3541.7,-2557.9 6838.1,-3737.2 9774.1,-3895.3 2840.5,-152.8 5344.2,650.1 7407.6,2084.4 -1994.7,-1276.1 -4372.7,-1976.6 -7048.2,-1832.5 -2945.2,158.5 -6250.7,1340.6 -9801.1,3904.8 -5072,3663.1 -7440.8,2987.1 -12031.9,1676.8 -2270.9,-648.1 -5084.6,-1451.2 -9035.7,-1962.5 -6429.6,-832 -9123.9,2586.9 -10240.8,5939.1 h 54.1 c 1115.8,-3329.4 3798.7,-6714.8 10180.3,-5889 3946.8,510.7 6758.8,1313.3 9028.3,1961 4606.5,1314.7 6983.2,1993.1 12075.2,-1684.5 3541.8,-2557.9 6838.1,-3737.2 9774.1,-3895.3 2840.5,-152.8 5344.2,650.1 7407.6,2084.4 -1994.6,-1276.1 -4372.8,-1976.5 -7048.2,-1832.5 -2945.1,158.5 -6250.7,1340.6 -9801,3904.8 -5072.1,3663.1 -7440.9,2987.1 -12032,1676.7 -2270.9,-648 -5084.6,-1451.1 -9035.7,-1962.4 -6236.3,-807 -8958.4,2385.2 -10135.7,5636.8 h 54.7 c 1176,-3228.1 3886.2,-6387.6 10074.6,-5586.7 3946.9,510.7 6758.9,1313.3 9028.3,1961 4606.6,1314.7 6983.2,1993 12075.2,-1684.5 3541.8,-2557.9 6838.2,-3737.2 9774.1,-3895.3 2840.6,-152.8 5344.3,650.1 7407.7,2084.4 -1994.6,-1276.1 -4372.8,-1976.5 -7048.3,-1832.5 -2945.1,158.5 -6250.6,1340.6 -9801,3904.8 -5072,3663.1 -7440.8,2987.1 -12031.9,1676.8 -2270.9,-648.1 -5084.7,-1451.2 -9035.7,-1962.5 -6042.8,-782 -8786.2,2191 -10021.7,5334.5 h 55.4 c 1234,-3119.4 3964.9,-6060.2 9959.9,-5284.4 3946.8,510.7 6758.8,1313.3 9028.3,1961 4606.5,1314.7 6983.2,1993 12075.2,-1684.5 3541.8,-2557.9 6838.1,-3737.2 9774.1,-3895.3 2840.5,-152.8 5344.2,650.1 7407.6,2084.4 -1994.6,-1276.1 -4372.8,-1976.5 -7048.2,-1832.5 -2945.2,158.5 -6250.7,1340.6 -9801.1,3904.8 -5072,3663.1 -7440.8,2987.1 -12031.9,1676.8 -2270.9,-648.1 -5084.6,-1451.2 -9035.7,-1962.5 -5848.6,-756.8 -8606.4,2004 -9897.9,5032.2 h 56.1 c 1289.8,-3003.6 4034.5,-5732.8 9835.4,-4982.1 3946.9,510.7 6758.8,1313.3 9028.3,1961 4606.6,1314.7 6983.2,1993 12075.2,-1684.5 3541.8,-2557.9 6838.1,-3737.2 9774.1,-3895.2 2840.5,-152.9 5344.3,650 7407.7,2084.3 C 68594.6,32207.4 66216.5,31507 63541,31651 c -2945.1,158.5 -6250.7,1340.6 -9801,3904.8 -5072,3663.1 -7440.9,2987.1 -12031.9,1676.8 -2271,-648.1 -5084.7,-1451.2 -9035.7,-1962.5 -5653.4,-731.6 -8418.9,1823.5 -9763.7,4729.9 h 57.1 c 1342.7,-2881.1 4094.5,-5405.2 9700.2,-4679.8 3946.8,510.7 6758.8,1313.4 9028.2,1961 4606.6,1314.7 6983.3,1993.1 12075.3,-1684.5 3541.8,-2557.9 6838.1,-3737.2 9774.1,-3895.3 2840.5,-152.8 5344.2,650.1 7407.6,2084.4 -1994.6,-1276.1 -4372.8,-1976.5 -7048.2,-1832.5 -2945.2,158.5 -6250.7,1340.6 -9801.1,3904.8 -5072,3663.1 -7440.8,2987.1 -12031.9,1676.8 -2270.9,-648.1 -5084.6,-1451.2 -9035.7,-1962.5 -5456.4,-706 -8222.6,1649.5 -9617.9,4427.6 h 57.9 c 1392.9,-2752.2 4144.9,-5077.4 9553.6,-4377.5 3946.8,510.7 6758.8,1313.4 9028.3,1961 4606.6,1314.7 6983.2,1993.1 12075.2,-1684.4 3541.8,-2558 6838.1,-3737.3 9774.1,-3895.3 2840.5,-152.9 5344.2,650 7407.6,2084.3 -1994.6,-1276 -4372.7,-1976.5 -7048.2,-1832.5 -2945.1,158.5 -6250.7,1340.6 -9801,3904.8 -5072,3663.1 -7440.9,2987.1 -12031.9,1676.8 -2271,-648.1 -5084.7,-1451.2 -9035.8,-1962.5 -5257.3,-680.3 -8017.5,1481.7 -9459.9,4125.3 h 59.3 c 1439.8,-2617.1 4184.9,-4749.3 9394.2,-4075.2 3946.9,510.7 6758.9,1313.3 9028.3,1961 4606.6,1314.7 6983.2,1993.1 12075.2,-1684.5 3541.8,-2557.9 6838.2,-3737.2 9774.1,-3895.2 2840.6,-152.9 5344.3,650 7407.7,2084.3 -1994.6,-1276 -4372.8,-1976.5 -7048.2,-1832.5 -2945.2,158.5 -6250.7,1340.6 -9801.1,3904.8 -5072,3663.1 -7440.8,2987.1 -12031.9,1676.8 -2270.9,-648.1 -5084.7,-1451.2 -9035.7,-1962.5 -5055.5,-654.2 -7802.2,1319.8 -9288.3,3823 h 61.8 c 1482.9,-2475.9 4212.9,-4420.9 9220.1,-3772.9 3946.8,510.7 6758.8,1313.4 9028.3,1961 4606.5,1314.7 6983.2,1993.1 12075.2,-1684.5 3541.8,-2557.9 6838.1,-3737.2 9774.1,-3895.2 2840.5,-152.9 5344.2,650 7407.6,2084.3 -1994.6,-1276.1 -4372.8,-1976.5 -7048.2,-1832.5 -2945.2,158.5 -6250.7,1340.6 -9801,3904.8 -5072.1,3663.2 -7440.9,2987.1 -12032,1676.8 -2270.9,-648.1 -5084.6,-1451.2 -9035.7,-1962.4 -4849.9,-627.7 -7574.7,1163.7 -9100.3,3520.6 h 63.5 c 1522,-2328.9 4229.1,-4091.9 9030.4,-3470.6 3946.9,510.7 6758.8,1313.4 9028.3,1961 4606.6,1314.7 6983.2,1993.1 12075.2,-1684.5 3541.8,-2557.9 6838.1,-3737.2 9774.1,-3895.2 2840.6,-152.9 5344.3,650 7407.7,2084.3 -1994.6,-1276 -4372.8,-1976.5 -7048.3,-1832.5 -2945.1,158.5 -6250.7,1340.6 -9801,3904.9 -5072,3663 -7440.9,2987 -12031.9,1676.7 -2271,-648.1 -5084.7,-1451.2 -9035.7,-1962.5 -4640.2,-600.5 -7334.4,1013.7 -8895.1,3218.4 h 65.4 c 1556.4,-2176.2 4232.2,-3762.4 8823.3,-3168.3 3946.8,510.7 6758.8,1313.4 9028.3,1961 4606.5,1314.7 6983.2,1993.1 12075.2,-1684.4 3541.7,-2558 6838.1,-3737.3 9774.1,-3895.3 2840.5,-152.9 5344.2,650 7407.6,2084.4 -1994.6,-1276.1 -4372.8,-1976.6 -7048.2,-1832.6 -2945.2,158.5 -6250.7,1340.6 -9801.1,3904.8 -2231.4,1611.6 -3939.5,2383.1 -5543.9,2630.4 h 303.6 c 1525.6,-294.6 3165.9,-1069.9 5269.8,-2589.4 3541.8,-2558 6838.1,-3737.3 9774.1,-3895.3 2840.5,-152.9 5344.2,650 7407.6,2084.3 -1994.5,-1276 -4372.8,-1976.5 -7048.2,-1832.5 -2945.1,158.5 -6250.7,1340.7 -9801,3904.8 -1654.7,1195.1 -3021.5,1928 -4271.8,2328.1 h 165.8 c 1213.5,-411.6 2541.5,-1135.9 4135.5,-2287.1 3541.7,-2558 6838.1,-3737.3 9774.1,-3895.3 2840.5,-152.9 5344.2,650 7407.6,2084.3 -1994.6,-1276 -4372.8,-1976.5 -7048.2,-1832.5 -2945.2,158.5 -6250.7,1340.7 -9801.1,3904.9 C 55333,38915 54209,39568.8 53179.6,40000 h 131.7 c 1001.8,-432.9 2094.7,-1075.5 3353.7,-1984.8 3541.8,-2558 6838.1,-3737.3 9774.1,-3895.3 2840.5,-152.9 5344.2,650 7407.6,2084.4 -1994.6,-1276.1 -4372.8,-1976.6 -7048.2,-1832.6 -2945.2,158.5 -6250.7,1340.6 -9801,3904.9 -1028.1,742.4 -1945,1306.6 -2792,1723.4 h 113.7 c 823.8,-413.6 1713.9,-964.8 2707.7,-1682.5 3541.8,-2558 6838.1,-3737.3 9774.1,-3895.3 2840.6,-152.9 5344.3,650.1 7407.7,2084.4 -1994.6,-1276.1 -4372.8,-1976.6 -7048.3,-1832.6 -2945.1,158.5 -6250.6,1340.7 -9801,3904.9 -798.1,576.3 -1529.1,1045.1 -2212.6,1421.1 h 104.4 c 662.1,-369.4 1368.8,-824.9 2137.7,-1380.2 3541.8,-2558 6838.1,-3737.3 9774.1,-3895.3 3039.7,-163.7 5693.9,767.2 7835.3,2395.3 80.1,67.1 162.1,135.4 245.8,204.8 116.5,98.2 237.2,199 361.9,302.3 116.6,98.1 237.2,199 362,302.3 116.6,98.2 237.2,199 361.9,302.3 627.9,529.1 1377,1137 2226.3,1768.5 h 365.1 c -132.7,-87.3 -263.9,-174.8 -393.3,-262.5 133.3,87.8 268.4,175.4 405,262.5 h 93.9 c -294.4,-186.9 -581.5,-375.6 -860.9,-564.8 288.5,189.8 584.5,378.6 887.7,564.8 h 96.6 c -465.9,-284.6 -915.3,-575.3 -1346.2,-867.1 445.8,293.4 909.8,584.2 1390.1,867.1 h 99.7 c -648.1,-379.3 -1267,-773.4 -1851.7,-1169.4 606.2,399 1246.4,793.3 1915.3,1169.4 h 103.2 c -841.8,-469.9 -1638.6,-969.4 -2380.5,-1471.7 771.1,507.5 1596.8,1007.1 2466.8,1471.7 h 107.5 c -1048.1,-555 -2032.9,-1162.3 -2936.2,-1774 941.3,619.5 1964.2,1227.6 3049.6,1774 h 112.7 c -1269.1,-632.9 -2453.9,-1351.5 -3524.3,-2076.3 1118.9,736.4 2353.1,1456.6 3670.5,2076.3 h 119 c -1506.9,-701 -2906.5,-1535.7 -4151.4,-2378.6 1306.2,859.6 2769.3,1697.1 4338.6,2378.6 h 127.5 c -1765.4,-756.2 -3398.8,-1713.1 -4828,-2680.9 1506.6,991.5 3222.1,1953.7 5068.6,2680.9 h 138.8 c -2050.2,-793.5 -3942.1,-1881.3 -5569.4,-2983.2 1726.2,1136.1 3726.7,2233.6 5884.3,2983.2 h 155.2 c -2370.9,-804.6 -4556.2,-2036 -6401.4,-3285.5 1893,1245.8 4115.6,2445.3 6513.6,3190.5 105.3,32.6 210.9,64.1 316.8,95 h 182.1 c -162.1,-45.7 -323.4,-93.4 -484,-143.3 -2559.2,-795.2 -4919,-2109.6 -6890.5,-3444.5 1893,1245.8 4115.7,2445.3 6513.7,3190.5 492.1,152.8 991.6,286.2 1497.1,397.3 h 242.9 c -583.4,-119.7 -1159.2,-269.7 -1725.1,-445.6 -2559.3,-795.2 -4919,-2109.5 -6890.5,-3444.5 1893,1245.8 4115.6,2445.3 6513.7,3190.5 1102.6,342.6 2242.3,588.7 3403.9,699.6 h 718.1 c -1405.2,-64.2 -2783,-336.5 -4107.1,-747.9 -2559.4,-795.2 -4919.1,-2109.6 -6890.5,-3444.5 1893,1245.8 4115.6,2445.3 6513.6,3190.4 3044.3,945.9 6370.6,1159.1 9663.6,-192.7 v -55.4 c -3287.8,1355.7 -6609.4,1144.3 -9648.7,199.9 -2559.3,-795.2 -4919,-2109.6 -6890.5,-3444.5 1893.1,1245.8 4115.6,2445.3 6513.7,3190.4 3155.8,980.6 6614.7,1174.5 10025.5,-347.1 v -56 c -3405.5,1525.9 -6859.7,1334 -10010.6,354.9 -2559.3,-795.2 -4919,-2109.5 -6890.5,-3444.5 1893,1245.8 4115.6,2445.3 6513.6,3190.4 3267.6,1015.3 6860,1186.5 10387.5,-515.8 v -56.7 c -3522.2,1707.2 -7110,1538.1 -10372.6,524.3 -2559.3,-795.3 -4918.9,-2109.5 -6890.5,-3444.5 1893.1,1245.8 4115.7,2445.3 6513.7,3190.4 3379.3,1050.1 7106.3,1197.7 10749.4,-696.8 v -57.3 c -3637.8,1900.3 -7360.1,1754.4 -10734.5,705.9 -2559.3,-795.2 -4918.9,-2109.5 -6890.5,-3444.5 1893,1245.8 4115.6,2445.3 6513.7,3190.4 3491.3,1084.9 7353.7,1206.1 11111.3,-892.3 v -58.5 c -3752.3,2104.9 -7610,1985.9 -11096.4,902.6 -3794.3,-1178.9 -7149.8,-3498.7 -9452.3,-5335.4 -98.1,-84.1 -197.4,-166.5 -297.9,-247.4 l -3.5,-3 c -117.7,-102 -237.3,-201.8 -358.4,-299.3 l -3.5,-3 c -117.7,-102 -237.3,-201.7 -358.4,-299.3 l -3.6,-3 c -117.6,-102 -237.1,-201.8 -358.4,-299.3 l -3.5,-3 c -117.7,-102.1 -237.3,-201.7 -358.4,-299.3 l -3.5,-3 c -2251.8,-1951.5 -5143.5,-3103.2 -8504.5,-2922.3 -2945.1,158.6 -6250.6,1340.7 -9801,3904.9 -5072,3663.1 -7440.9,2987 -12031.9,1676.7 -2271,-648.1 -5084.7,-1451.1 -9035.7,-1962.4 C 20303,30603.9 18096.3,36189 17514.5,40000 Z m 30286.1,0 c -1201,-162.6 -2467.2,-524 -3972.3,-953.6 -2270.9,-648.1 -5084.6,-1451.2 -9035.7,-1962.5 -4425.1,-572.6 -7080,869.1 -8670.3,2916.1 h 67.5 c 1585.2,-2017.8 4220.9,-3432.2 8596.4,-2866 3946.8,510.7 6758.8,1313.4 9028.3,1961 1366.6,390 2537,724.1 3640.2,905 z m -1206.1,0 c -744,-177.5 -1534.1,-403 -2404.2,-651.3 -2271,-648.1 -5084.7,-1451.1 -9035.8,-1962.4 -4203.7,-544 -6809.7,730 -8423.4,2613.7 h 70 c 1607.8,-1853.9 4193.5,-3101.2 8347.1,-2563.7 3946.8,510.7 6758.8,1313.4 9028.2,1961 791.9,226 1517.9,433.2 2203,602.7 z m -804.6,0 c -395.8,-108.7 -807,-226.1 -1237.7,-349 -2270.9,-648.1 -5084.6,-1451.1 -9035.7,-1962.4 -3974.9,-514.4 -6521.3,596.5 -8151.2,2311.4 h 72.7 c 1622.9,-1684.5 4148.3,-2769.1 8072.1,-2261.4 3946.8,510.7 6758.8,1313.4 9028.3,1961 367.2,104.8 720.2,205.6 1061.6,300.4 z m -712.2,0 -163.6,-46.7 c -2270.9,-648.1 -5084.6,-1451.2 -9035.7,-1962.4 -3736.4,-483.6 -6211.5,468.7 -7848.8,2009.1 h 79.8 c 1629,-1508.7 4079.3,-2435.7 7762.6,-1959.1 3943,510.2 6753.2,1311.8 9021.6,1959.1 z m -701.8,0 c -2109.9,-593.3 -4690.2,-1261 -8135.5,-1706.8 -3484.6,-451 -5870.7,347.8 -7504.8,1706.8 h 84.1 c 1624.1,-1326.7 3984.3,-2100.7 7414.3,-1656.8 3347.5,433.2 5878.6,1076.3 7954.7,1656.8 z m 44487.5,0 c 361.5,-88.5 723.5,-194.3 1085.2,-317.9 v -54.1 c -436.4,149.9 -873,273.1 -1309,372 z m -2127.4,0 c 1065.9,-106.5 2140.5,-346.7 3212.6,-749.7 v -54.8 c -1307.8,493.6 -2619.1,744.1 -3914.1,804.5 h 701.5"
         style="display:inline;fill:#acb9ca;fill-opacity:1;fill-rule:evenodd;stroke:none"
         transform="matrix(0.13333333,0,0,-0.13333333,0,5333.3333)" /></g></g></svg>
