<?xml version="1.0" encoding="UTF-8" standalone="no"?>
<!-- Created with Inkscape (http://www.inkscape.org/) -->

<svg
   width="104.43178mm"
   height="99.48912mm"
   viewBox="0 0 104.43178 99.48912"
   version="1.1"
   id="svg1"
   xml:space="preserve"
   xmlns="http://www.w3.org/2000/svg"
   xmlns:svg="http://www.w3.org/2000/svg"><defs
     id="defs1" /><g
     id="layer5"
     transform="translate(-20.183598,-12.715362)"><path
       style="fill:none;stroke:#e1f102;stroke-width:3;stroke-linecap:round;stroke-linejoin:round;stroke-dasharray:none"
       d="m 21.683597,14.312101 101.431783,0.14743"
       id="path28" /><path
       style="fill:none;stroke:#e1f102;stroke-width:3;stroke-linecap:round;stroke-linejoin:round;stroke-dasharray:none"
       d="m 21.683597,22.809513 101.431783,0.14743"
       id="path29" /><path
       style="fill:none;stroke:#e1f102;stroke-width:2.99349;stroke-linecap:round;stroke-linejoin:round;stroke-dasharray:none"
       d="m 26.600793,22.159467 7.664164,-7.31163 8.059223,7.629526 8.69132,-7.709 8.29626,7.947424 8.454285,-7.788476 8.533294,7.629526 8.138236,-7.947422 8.849343,8.344794 8.691322,-8.742166 8.13824,8.424269 8.6123,-8.026897"
       id="path30" /><path
       style="fill:none;stroke:#e1f102;stroke-width:2.98091;stroke-linecap:round;stroke-linejoin:round;stroke-dasharray:none"
       d="m 29.05637,23.25907 0.17792,8.119427"
       id="path31" /><path
       style="fill:none;stroke:#e1f102;stroke-width:3;stroke-linecap:round;stroke-linejoin:round;stroke-dasharray:none"
       d="M 32.639592,49.713832 44.393024,37.642741 c 0,0 -4.507248,-4.617974 -6.988527,-6.670865 -0.526359,-0.435484 -1.038937,-0.924136 -1.667716,-1.191226 -0.669031,-0.284188 -1.417952,-0.366759 -2.144207,-0.397076 -0.531612,-0.02219 -1.071489,0.03231 -1.588302,0.158832 -0.415396,0.101693 -0.826558,0.253078 -1.191225,0.476491 -0.479895,0.294007 -0.865358,0.721318 -1.270641,1.111811 -1.834005,1.76708 -3.894227,3.397739 -5.241395,5.559054 -0.239277,0.383882 -0.381012,0.828484 -0.47649,1.270641 -0.084,0.388991 -0.06618,0.793489 -0.07942,1.191225 -0.01057,0.317485 -0.04216,0.638132 0,0.952982 0.04006,0.299153 0.121499,0.595234 0.238245,0.873564 0.284499,0.678262 0.648424,1.334778 1.111811,1.905963 2.137151,2.634314 7.544435,6.829695 7.544435,6.829695 z"
       id="path32" /><path
       style="fill:none;stroke:#e1f102;stroke-width:3;stroke-linecap:round;stroke-linejoin:round;stroke-dasharray:none"
       d="M 33.244207,48.335212 61.180308,88.576365"
       id="path33" /><path
       style="fill:none;stroke:#e1f102;stroke-width:3;stroke-linecap:round;stroke-linejoin:round;stroke-dasharray:none"
       d="M 43.20859,40.339516 62.016374,52.179041"
       id="path34" /><path
       style="fill:none;stroke:#e1f102;stroke-width:3;stroke-linecap:round;stroke-linejoin:round;stroke-dasharray:none"
       d="m 62.921316,44.725685 16.839648,0.529755 c 0,0 0.367069,-6.442532 0.207983,-9.659021 -0.03375,-0.68232 -0.01896,-1.390345 -0.246094,-2.034634 -0.241678,-0.685533 -0.686066,-1.293991 -1.153727,-1.850461 -0.342324,-0.40733 -0.746826,-0.769014 -1.188922,-1.065079 -0.355341,-0.237967 -0.7445,-0.43928 -1.155447,-0.557677 -0.540799,-0.155808 -1.116265,-0.151975 -1.677932,-0.187612 -2.54168,-0.161266 -5.135313,-0.58154 -7.639469,-0.117487 -0.444776,0.08242 -0.86855,0.277807 -1.259308,0.505682 -0.343775,0.200473 -0.630291,0.486557 -0.932775,0.745155 -0.241452,0.20642 -0.499422,0.39946 -0.70335,0.643019 -0.193761,0.231418 -0.357333,0.491303 -0.483982,0.765269 -0.308629,0.667628 -0.547616,1.379204 -0.656513,2.106611 -0.502232,3.354815 0.04989,10.17648 0.04989,10.17648 z"
       id="path35" /><path
       style="fill:none;stroke:#e1f102;stroke-width:2.81434;stroke-linecap:round;stroke-linejoin:round;stroke-dasharray:none"
       d="m 71.221905,22.699298 0.185654,6.935934"
       id="path36" /><path
       style="fill:none;stroke:#e1f102;stroke-width:2.98456;stroke-linecap:round;stroke-linejoin:round;stroke-dasharray:none"
       d="M 65.427934,44.802507 44.244275,107.75383"
       id="path37" /><path
       style="fill:none;stroke:#e1f102;stroke-width:2.98456;stroke-linecap:round;stroke-linejoin:round;stroke-dasharray:none"
       d="m 77.35213,45.063061 23.10608,62.271379"
       id="path38" /><path
       style="fill:none;stroke:#e1f102;stroke-width:2.81434;stroke-linecap:round;stroke-linejoin:round;stroke-dasharray:none"
       d="m 115.13844,24.92292 0.18565,6.935934"
       id="path39" /><path
       style="fill:none;stroke:#e1f102;stroke-width:3;stroke-linecap:round;stroke-linejoin:round;stroke-dasharray:none"
       d="m 101.09824,43.963196 15.74417,5.997954 c 0,0 2.4501,-5.969757 3.34973,-9.061968 0.19088,-0.655941 0.43591,-1.320379 0.43159,-2.003504 -0.005,-0.726872 -0.22607,-1.447065 -0.48645,-2.125715 -0.1906,-0.496764 -0.45487,-0.97068 -0.7761,-1.394847 -0.25819,-0.340929 -0.56031,-0.658253 -0.9101,-0.904317 -0.46031,-0.323813 -1.0055,-0.508046 -1.52476,-0.725085 -2.34979,-0.982151 -4.66414,-2.226078 -7.1826,-2.604919 -0.44731,-0.06729 -0.91165,-0.02095 -1.3554,0.06688 -0.39038,0.07727 -0.75459,0.254147 -1.12492,0.399835 -0.2956,0.116291 -0.60246,0.214543 -0.87473,0.378187 -0.25869,0.155488 -0.49813,0.347738 -0.70728,0.565351 -0.50967,0.530302 -0.96785,1.124878 -1.30825,1.776885 -1.56988,3.007075 -3.27489,9.635263 -3.27489,9.635263 z"
       id="path40" /><path
       style="fill:none;stroke:#e1f102;stroke-width:3;stroke-linecap:round;stroke-linejoin:round;stroke-dasharray:none"
       d="M 77.350278,79.5739 102.04836,44.472439"
       id="path41" /><path
       style="fill:none;stroke:#e1f102;stroke-width:3;stroke-linecap:round;stroke-linejoin:round;stroke-dasharray:none"
       d="M 115.54892,49.157927 103.08075,98.792344"
       id="path42" /><path
       style="fill:none;stroke:#e1f102;stroke-width:3;stroke-linecap:round;stroke-linejoin:round;stroke-dasharray:none"
       d="m 52.731606,102.52485 2.700112,3.09719 -0.317661,5.00315 4.288414,-2.14421 4.288414,2.22362 -0.794152,-5.00314 3.732509,-3.25602 -4.606073,-0.47649 -2.144207,-5.082567 -2.382451,4.923737 z"
       id="path43" /><path
       style="fill:none;stroke:#e1f102;stroke-width:3;stroke-linecap:round;stroke-linejoin:round;stroke-dasharray:none"
       d="m 67.423393,94.821593 5.559056,5.161979 -1.508887,7.941508 6.829695,-4.05017 6.512037,3.81193 -1.667718,-7.54444 5.320809,-5.320809 -6.988525,-1.350055 -3.256018,-6.750282 -3.335433,6.591452 z"
       id="path44" /></g></svg>
