<?xml version="1.0" encoding="UTF-8" standalone="no"?>
<!-- Created with Inkscape (http://www.inkscape.org/) -->

<svg
   width="135.46667mm"
   height="124.17778mm"
   viewBox="0 0 135.46667 124.17778"
   version="1.1"
   id="svg1"
   xml:space="preserve"
   xmlns="http://www.w3.org/2000/svg"
   xmlns:svg="http://www.w3.org/2000/svg"><defs
     id="defs1" /><g
     id="layer1"
     transform="translate(-36.720059,-86.411107)"><g
       id="g1"
       transform="matrix(5.6444444,0,0,5.6444444,36.720057,80.766667)"
       style="fill:#e1f102"><path
         d="m 23.954,5.542 -8.418,8.418 a 5.007,5.007 0 0 1 -7.072,0 L 0.046,5.542 C 0.032,5.7 0,5.843 0,6 v 12 a 5.006,5.006 0 0 0 5,5 h 14 a 5.006,5.006 0 0 0 5,-5 V 6 C 24,5.843 23.968,5.7 23.954,5.542 Z"
         id="path1"
         style="fill:#e1f102" /><path
         d="M 14.122,12.546 23.256,3.411 A 4.986,4.986 0 0 0 19,1 H 5 A 4.986,4.986 0 0 0 0.744,3.411 l 9.134,9.135 a 3.007,3.007 0 0 0 4.244,0 z"
         id="path2"
         style="fill:#e1f102" /></g></g></svg>
