<?xml version="1.0" encoding="UTF-8" standalone="no"?>
<!-- Created with Inkscape (http://www.inkscape.org/) -->

<svg
   width="94.352509mm"
   height="119.82849mm"
   viewBox="0 0 94.352509 119.82849"
   version="1.1"
   id="svg1"
   xml:space="preserve"
   xmlns="http://www.w3.org/2000/svg"
   xmlns:svg="http://www.w3.org/2000/svg"><defs
     id="defs1" /><g
     id="layer6"
     transform="translate(-41.843362,-21.492782)"><path
       style="display:inline;fill:none;stroke:#e1f102;stroke-width:2.92596;stroke-linecap:round;stroke-linejoin:round;stroke-dasharray:none"
       id="path45"
       d="M 46.195854,86.983826 A 45.323597,47.498604 0 0 1 49.425549,46.466929 45.323597,47.498604 0 0 1 81.38153,23.412026" /><path
       style="display:inline;fill:none;stroke:#e1f102;stroke-width:2.92596;stroke-linecap:round;stroke-linejoin:round;stroke-dasharray:none"
       id="path46"
       d="m 87.343496,23.005119 a 45.323597,47.498604 0 0 1 37.231494,17.485086 45.323597,47.498604 0 0 1 8.73544,41.765286" /><path
       style="fill:none;stroke:#e1f102;stroke-width:3;stroke-linecap:round;stroke-linejoin:round;stroke-dasharray:none"
       d="m 46.451758,87.466021 c 0,0 2.888066,4.841141 4.505356,7.146425 3.051941,4.350234 6.369592,8.514904 9.787493,12.583914 4.315253,5.1373 13.516065,14.91428 13.516065,14.91428 l 16.312488,17.7107 c 0,0 23.11057,-27.83693 34.02319,-42.257112 1.45672,-1.924946 2.89091,-3.871882 4.19464,-5.903567 0.8395,-1.308245 1.64162,-2.645764 2.33036,-4.039283 0.89487,-1.81057 2.33036,-5.592855 2.33036,-5.592855"
       id="path47" /><path
       style="fill:none;stroke:#e1f102;stroke-width:3;stroke-linecap:round;stroke-linejoin:round;stroke-dasharray:none"
       d="m 71.930315,82.805309 c 0,0 -3.186568,-2.438721 -4.349996,-4.039283 -0.939961,-1.293132 -1.562135,-2.818202 -2.019644,-4.349999 -2.142015,-7.171727 -2.69255,-16.656303 -3.262498,-22.216056 -0.153968,-1.501928 3.000892,0.339239 4.505354,0.466068 2.378765,0.200535 4.759841,0.520414 7.146425,0.466072 2.34409,-0.05338 4.709095,-0.238084 6.991069,-0.776785 2.041059,-0.481829 3.966043,-1.372451 5.903566,-2.174999 1.370036,-0.567488 2.677185,-1.278002 4.039285,-1.864284 1.024615,-0.44102 2.02571,-1.51643 3.10714,-1.242856 0.392107,0.09919 0.711729,0.53295 0.776785,0.932143 1.189587,7.299501 2.457749,14.732363 3.262498,22.216057 0.123806,1.151326 -0.301217,2.305047 -0.621427,3.417856 -0.308467,1.072 -0.696347,2.13469 -1.242857,3.107142 -1.014844,1.805797 -2.09627,2.742244 -3.573212,4.19464 -1.322048,1.300077 -2.102221,2.289051 -3.573212,3.417855 -0.846955,0.649933 -2.56715,2.283876 -3.573212,2.641069 -0.439211,0.155938 -0.937028,0.06731 -1.398214,0 -3.047979,-0.444842 -8.855353,-2.641071 -8.855353,-2.641071"
       id="path48" /><path
       style="fill:none;stroke:#e1f102;stroke-width:3;stroke-linecap:round;stroke-linejoin:round;stroke-dasharray:none"
       d="m 70.532102,64.007105 c 5.74821,-0.776784 5.74821,-0.776784 5.74821,-0.776784"
       id="path49" /><path
       style="fill:none;stroke:#e1f102;stroke-width:2.91593;stroke-linecap:round;stroke-linejoin:round;stroke-dasharray:none"
       d="M 84.782912,62.029502 C 89.683057,61.16864 89.683057,61.16864 89.683057,61.16864"
       id="path50" /><path
       style="fill:none;stroke:#e1f102;stroke-width:3;stroke-linecap:round;stroke-linejoin:round;stroke-dasharray:none"
       d="m 74.260672,72.862458 c 0,0 1.25467,1.270146 2.019641,1.708927 0.809818,0.464505 1.73304,0.715222 2.641068,0.932143 1.168286,0.279095 1.997039,0.593943 3.191373,0.466069 0.765475,-0.08196 1.853424,-0.421511 2.556841,-0.734358 0.698626,-0.310716 1.174461,-0.517061 1.765081,-1.002645 0.46149,-0.379419 1.283431,-1.531112 1.652772,-1.991566 0.512329,-0.638716 1.18608,-2.062068 1.18608,-2.062068"
       id="path51" /><path
       style="fill:none;stroke:#e1f102;stroke-width:2.80994;stroke-linecap:round;stroke-linejoin:round;stroke-dasharray:none"
       d="m 97.72675,60.388627 4.09462,0.973273"
       id="path52" /><path
       style="fill:none;stroke:#e1f102;stroke-width:3;stroke-linecap:round;stroke-linejoin:round;stroke-dasharray:none"
       d="m 85.108041,87.364352 c 0,0 2.823763,3.371417 4.422367,4.87363 1.263404,1.187225 2.56686,2.370362 4.06136,3.249089 0.616433,0.362446 1.274409,0.737244 1.985555,0.812271 1.519944,0.160356 3.041699,-0.397126 4.512617,-0.812271 1.27426,-0.359643 2.49773,-0.890141 3.70035,-1.44404 1.33251,-0.613722 2.63011,-1.309091 3.88086,-2.075805 1.0317,-0.632436 2.11409,-1.228772 2.97833,-2.075807 0.8767,-0.85925 1.57075,-1.904773 2.16606,-2.97833 0.81817,-1.475463 1.4523,-3.065198 1.8953,-4.693126 0.59098,-2.171714 1.18721,-4.545168 1.53428,-6.768933 0.74744,-4.788932 1.80506,-14.259883 1.80506,-14.259883 l -10.10827,0.902523"
       id="path53" /><path
       style="fill:none;stroke:#e1f102;stroke-width:3;stroke-linecap:round;stroke-linejoin:round;stroke-dasharray:none"
       d="m 103.24878,71.840933 7.03969,1.353786"
       id="path54" /><path
       style="fill:none;stroke:#e1f102;stroke-width:3;stroke-linecap:round;stroke-linejoin:round;stroke-dasharray:none"
       d="m 93.236903,81.93367 c 0.843288,0.855366 1.379617,1.561278 2.460492,2.0852 0.692758,0.335791 1.795469,0.623814 2.557837,0.730881 0.757176,0.106339 1.270093,0.18325 2.028238,0.08406 0.59239,-0.07751 1.89947,-0.619283 2.4566,-0.814326 0.77281,-0.270551 2.09803,-1.121246 2.09803,-1.121246"
       id="path55" /></g></svg>
