<?xml version="1.0" encoding="UTF-8" standalone="no"?>
<!-- Created with Inkscape (http://www.inkscape.org/) -->

<svg
   width="112.88889mm"
   height="135.46667mm"
   viewBox="0 0 112.88889 135.46667"
   version="1.1"
   id="svg1"
   xml:space="preserve"
   xmlns="http://www.w3.org/2000/svg"
   xmlns:svg="http://www.w3.org/2000/svg"><defs
     id="defs1" /><g
     id="layer1"
     transform="translate(-48.008943,-80.76666)"><path
       d="M 132.67561,80.766665 H 76.231166 c -15.561733,0 -28.222222,12.660489 -28.222222,28.222225 v 84.66666 c 0,12.45164 10.126133,22.57778 22.577778,22.57778 h 62.088888 c 15.56174,0 28.22223,-12.66049 28.22223,-28.22223 v -79.02221 c 0,-15.561736 -12.66049,-28.222225 -28.22223,-28.222225 z m 16.93334,28.222225 v 62.08889 H 81.875611 V 92.055554 h 22.577779 v 47.114176 c 0,3.51649 4.46475,5.02356 6.59835,2.22956 l 7.51276,-9.83827 7.51276,9.83827 c 2.1336,2.794 6.59835,1.28693 6.59835,-2.22956 V 92.055554 c 9.33592,0 16.93334,7.597422 16.93334,16.933336 z M 70.586722,93.094132 v 77.983648 c -4.131734,0 -7.953023,1.19662 -11.288889,3.13831 v -65.2272 c 0,-7.34907 4.735689,-13.557958 11.288889,-15.894758 z M 132.67561,204.94444 H 70.586722 c -14.839245,-0.26529 -14.827956,-22.31814 0,-22.57778 h 79.022228 v 5.64444 c 0,9.33592 -7.59742,16.93334 -16.93334,16.93334 z"
       id="path1"
       style="fill:#e1f102;stroke-width:5.64444" /></g></svg>
