<?xml version="1.0" encoding="UTF-8" standalone="no"?>
<!-- Created with Inkscape (http://www.inkscape.org/) -->

<svg
   width="135.46674mm"
   height="135.46678mm"
   viewBox="0 0 135.46674 135.46678"
   version="1.1"
   id="svg1"
   xml:space="preserve"
   xmlns="http://www.w3.org/2000/svg"
   xmlns:svg="http://www.w3.org/2000/svg"><defs
     id="defs1" /><g
     id="layer1"
     transform="translate(-36.720014,-80.766615)"><g
       id="g1"
       transform="matrix(5.6444444,0,0,5.6444444,36.720015,80.76661)"
       style="fill:#4438ce"><path
         d="M 18.656,0.93 6.464,13.122 A 4.966,4.966 0 0 0 5,16.657 V 18 a 1,1 0 0 0 1,1 h 1.343 a 4.966,4.966 0 0 0 3.535,-1.464 L 23.07,5.344 a 3.125,3.125 0 0 0 0,-4.414 3.194,3.194 0 0 0 -4.414,0 z m 3,3 L 9.464,16.122 A 3.02,3.02 0 0 1 7.343,17 H 7 V 16.657 A 3.02,3.02 0 0 1 7.878,14.536 L 20.07,2.344 a 1.148,1.148 0 0 1 1.586,0 1.123,1.123 0 0 1 0,1.586 z"
         id="path1"
         style="fill:#4438ce" /><path
         d="m 23,8.979 a 1,1 0 0 0 -1,1 V 15 h -4 a 3,3 0 0 0 -3,3 v 4 H 5 A 3,3 0 0 1 2,19 V 5 A 3,3 0 0 1 5,2 h 9.042 a 1,1 0 0 0 0,-2 H 5 A 5.006,5.006 0 0 0 0,5 v 14 a 5.006,5.006 0 0 0 5,5 h 11.343 a 4.968,4.968 0 0 0 3.536,-1.464 l 2.656,-2.658 A 4.968,4.968 0 0 0 24,16.343 V 9.979 a 1,1 0 0 0 -1,-1 z M 18.465,21.122 A 2.975,2.975 0 0 1 17,21.922 V 18 a 1,1 0 0 1 1,-1 h 3.925 a 3.016,3.016 0 0 1 -0.8,1.464 z"
         id="path2"
         style="fill:#4438ce" /></g></g></svg>
