<?xml version="1.0" encoding="UTF-8" standalone="no"?>
<!-- Created with Inkscape (http://www.inkscape.org/) -->

<svg
   width="58.676849mm"
   height="60.458546mm"
   viewBox="0 0 58.676849 60.458546"
   version="1.1"
   id="svg1"
   xml:space="preserve"
   xmlns="http://www.w3.org/2000/svg"
   xmlns:svg="http://www.w3.org/2000/svg"><defs
     id="defs1" /><g
     id="layer2"
     style="display:inline"
     transform="translate(-7.9242284,-1.6363456)"><path
       style="fill:none;stroke:#e1f102;stroke-width:1.5;stroke-linejoin:round;stroke-dasharray:none"
       d="M 21.625112,11.163261 C 21.399273,10.13632 21.311278,8.964912 21.447221,7.9221385 c 0.154308,-1.1836371 0.566262,-2.0845459 1.317924,-3.0096206 0.904404,-1.1130575 1.946881,-2.003031 3.344089,-2.3131405 1.357359,-0.301265 2.905811,-0.3041452 4.217104,0.1591183 0.9987,0.3528281 1.586307,0.8188885 2.297006,1.606595 0.518071,0.5742076 1.177931,1.6098402 1.495951,2.3156929 0.235921,0.5236339 0.44258,1.6782564 0.44258,1.6782564 0,0 -2.072377,-0.2149264 -3.108421,-0.066073 -1.099872,0.1580211 -2.21155,0.4648668 -3.253741,0.8514568 -0.91341,0.3388203 -1.767101,0.8236152 -2.629694,1.2771842 -0.661747,0.34796 -0.973513,0.529442 -1.588136,0.955672 -0.545087,0.378012 -1.750469,1.57143 -1.750469,1.57143 0.04884,0.115749 -0.421618,-1.032647 -0.606302,-1.785449 z"
       id="path2" /><path
       style="fill:none;stroke:#e1f102;stroke-width:1.5;stroke-linejoin:round;stroke-dasharray:none"
       d="m 52.580433,11.386281 c 0.894315,-0.553002 1.8568,-0.796184 2.885796,-1.013033 1.167999,-0.246142 2.564085,-0.246607 3.685802,0.156515 1.34966,0.485039 2.580019,1.265227 3.335091,2.481051 0.733536,1.181146 1.339775,2.573107 1.336624,3.963823 -0.0024,1.059191 -0.08841,1.858957 -0.596506,2.790311 -0.370377,0.67892 -1.038221,1.667114 -1.599036,2.20083 -0.416038,0.395933 -1.573722,1.268921 -1.573722,1.268921 0,0 -0.665136,-2.390806 -1.148504,-3.319193 -0.513144,-0.985581 -0.897563,-1.63722 -1.607302,-2.492721 -0.622039,-0.74979 -1.271036,-1.394912 -1.984538,-2.05877 -0.54737,-0.509285 -1.276929,-1.016485 -1.88256,-1.455397 -0.537118,-0.389254 -2.289783,-1.586827 -2.289783,-1.586827 0.589617,-0.438985 0.652855,-0.398296 1.438638,-0.93551 z"
       id="path3" /><ellipse
       style="fill:none;stroke:#e1f102;stroke-width:1.57427;stroke-linejoin:round;stroke-dasharray:none"
       id="path4"
       cx="37.277729"
       cy="32.447598"
       rx="20.646746"
       ry="20.724651" /><path
       style="display:inline;fill:none;stroke:#e1f102;stroke-width:1.5;stroke-linecap:round;stroke-linejoin:round;stroke-dasharray:none"
       d="m 39.16513,7.2256522 8.901165,2.3736443"
       id="path6" /><path
       style="fill:none;stroke:#e1f102;stroke-width:1.5;stroke-linejoin:round;stroke-dasharray:none"
       d="m 43.731738,7.6402833 -1.92082,7.7662617 0.383972,-1.648693"
       id="path5" /><path
       style="fill:none;stroke:#e1f102;stroke-width:1.2996;stroke-linecap:round;stroke-linejoin:round;stroke-dasharray:none"
       d="M 49.676515,19.962018 51.936401,17.80685"
       id="path7" /><path
       style="fill:none;stroke:#e1f102;stroke-width:1.2996;stroke-linecap:round;stroke-linejoin:round;stroke-dasharray:none"
       d="m 54.249481,27.854399 3.02741,-0.765914"
       id="path8" /><path
       style="fill:none;stroke:#e1f102;stroke-width:1.2996;stroke-linecap:round;stroke-linejoin:round;stroke-dasharray:none"
       d="m 54.304579,36.859695 2.987026,0.910778"
       id="path9" /><path
       style="fill:none;stroke:#e1f102;stroke-width:1.2996;stroke-linecap:round;stroke-linejoin:round;stroke-dasharray:none"
       d="m 49.805033,44.873823 2.072664,2.335788"
       id="path10" /><path
       style="fill:none;stroke:#e1f102;stroke-width:1.2996;stroke-linecap:round;stroke-linejoin:round;stroke-dasharray:none"
       d="m 41.905988,49.519726 0.766552,3.02725"
       id="path11" /><path
       style="fill:none;stroke:#e1f102;stroke-width:1.2996;stroke-linecap:round;stroke-linejoin:round;stroke-dasharray:none"
       d="M 32.621044,49.345595 31.85132,52.372041"
       id="path12" /><path
       style="fill:none;stroke:#e1f102;stroke-width:1.2996;stroke-linecap:round;stroke-linejoin:round;stroke-dasharray:none"
       d="m 24.918525,44.823741 -2.189636,2.22651"
       id="path13" /><path
       style="fill:none;stroke:#e1f102;stroke-width:1.2996;stroke-linecap:round;stroke-linejoin:round;stroke-dasharray:none"
       d="M 20.294652,36.87293 17.29968,37.757236"
       id="path14" /><path
       style="fill:none;stroke:#e1f102;stroke-width:1.2996;stroke-linecap:round;stroke-linejoin:round;stroke-dasharray:none"
       d="M 20.247917,27.826194 17.206789,27.116688"
       id="path15" /><path
       style="fill:none;stroke:#e1f102;stroke-width:1.2996;stroke-linecap:round;stroke-linejoin:round;stroke-dasharray:none"
       d="M 24.701468,19.86546 22.457254,17.69397"
       id="path16" /><path
       style="fill:none;stroke:#e1f102;stroke-width:1.2996;stroke-linecap:round;stroke-linejoin:round;stroke-dasharray:none"
       d="M 32.746443,15.365707 31.935359,12.350079"
       id="path17" /><ellipse
       style="fill:none;stroke:#e1f102;stroke-width:1.27155;stroke-linecap:round;stroke-linejoin:round;stroke-dasharray:none"
       id="path18"
       cx="37.245274"
       cy="32.463078"
       rx="1.8595541"
       ry="2.0340867" /><path
       style="fill:none;stroke:#e1f102;stroke-width:1.5;stroke-linecap:round;stroke-linejoin:round;stroke-dasharray:none"
       d="m 37.803775,30.50831 2.652897,-9.808736"
       id="path19" /><path
       style="fill:none;stroke:#e1f102;stroke-width:1.5;stroke-linecap:round;stroke-linejoin:round;stroke-dasharray:none"
       d="m 28.972422,30.089432 6.422803,1.745327"
       id="path20" /><path
       style="fill:none;stroke:#e1f102;stroke-width:1.5;stroke-linecap:round;stroke-linejoin:round;stroke-dasharray:none"
       d="m 12.945479,37.327456 c 0,0 -0.449013,-3.786341 -0.385316,-5.684432 0.06425,-1.914519 0.271012,-3.845799 0.77217,-5.694678 0.542413,-2.001082 1.363322,-3.941326 2.391312,-5.741819 0.941833,-1.649589 3.416603,-4.560764 3.416603,-4.560764"
       id="path21" /><path
       style="fill:none;stroke:#e1f102;stroke-width:1.5;stroke-linecap:round;stroke-linejoin:round;stroke-dasharray:none"
       d="m 8.6910896,34.831993 c 0,0 -0.07198,-3.750214 0.1014526,-5.613699 0.1440831,-1.548137 0.3657824,-3.099933 0.7778017,-4.599176 0.3811031,-1.386746 0.9741021,-2.708924 1.5556041,-4.024279 0.448438,-1.014363 0.917784,-2.024665 1.487968,-2.975937 0.340891,-0.568729 1.149794,-1.623239 1.149794,-1.623239"
       id="path22" /><path
       style="fill:none;stroke:#e1f102;stroke-width:1.5;stroke-linecap:round;stroke-linejoin:round;stroke-dasharray:none"
       d="m 55.257744,49.204419 c 0,0 1.58132,-1.879634 2.299589,-2.874486 0.605807,-0.839084 1.068907,-1.724422 1.555603,-2.637762 0.432263,-0.811191 0.875613,-1.649238 1.217429,-2.502492 0.322344,-0.804646 0.769006,-1.794797 0.946889,-2.401043 0.163285,-0.556489 0.502044,-1.796962 0.608716,-2.63776 0.133373,-1.051248 0.242361,-2.153002 0.236725,-3.212662 -0.0056,-1.059839 -0.162629,-1.887774 -0.304362,-3.009754 -0.132174,-1.04631 -0.574897,-3.111206 -0.574897,-3.111206"
       id="path23" /><path
       style="fill:none;stroke:#e1f102;stroke-width:1.5;stroke-linecap:round;stroke-linejoin:round;stroke-dasharray:none"
       d="m 60.600907,48.76479 c 0,0 1.324571,-1.832235 1.893776,-2.806848 0.597461,-1.022995 0.943968,-1.789795 1.420334,-2.874485 0.40744,-0.927745 0.851364,-1.854032 1.082159,-2.84067 0.188291,-0.804936 0.464205,-1.983764 0.54108,-2.806847 0.115786,-1.239693 0.247936,-2.27321 0.304356,-3.517019 0.03576,-0.788263 -0.05683,-1.748497 -0.101452,-2.536309 -0.02823,-0.498383 -0.169087,-1.487969 -0.169087,-1.487969"
       id="path24" /><path
       style="fill:none;stroke:#e1f102;stroke-width:1.5;stroke-linecap:round;stroke-linejoin:round;stroke-dasharray:none"
       d="m 16.807282,53.938865 6.966399,-5.681337"
       id="path25" /><path
       style="fill:none;stroke:#e1f102;stroke-width:1.5;stroke-linecap:round;stroke-linejoin:round;stroke-dasharray:none"
       d="M 44.199434,61.344889 40.986773,52.789071"
       id="path26" /></g></svg>
