<?xml version="1.0" encoding="UTF-8" standalone="no"?>
<!-- Created with Inkscape (http://www.inkscape.org/) -->

<svg
   width="112.88904mm"
   height="135.4668mm"
   viewBox="0 0 112.88904 135.4668"
   version="1.1"
   id="svg1"
   xml:space="preserve"
   xmlns="http://www.w3.org/2000/svg"
   xmlns:svg="http://www.w3.org/2000/svg"><defs
     id="defs1" /><g
     id="layer1"
     transform="translate(-48.008874,-80.766599)"><path
       d="M 149.32666,112.01438 129.65012,92.337846 A 39.251467,39.251467 0 0 0 101.71576,80.766735 H 76.231096 A 28.256089,28.256089 0 0 0 48.008874,108.98896 v 79.02221 a 28.256089,28.256089 0 0 0 28.222222,28.22223 h 56.444444 a 28.256089,28.256089 0 0 0 28.22223,-28.22223 v -48.06244 a 39.251467,39.251467 0 0 0 -11.57111,-27.93435 z m -7.98125,7.98124 a 28.323822,28.323822 0 0 1 4.40831,5.92667 h -24.36707 a 5.6444444,5.6444444 0 0 1 -5.64444,-5.64444 V 95.910779 a 28.323822,28.323822 0 0 1 5.92666,4.408311 z m 8.26347,68.01555 a 16.933333,16.933333 0 0 1 -16.93334,16.93334 H 76.231096 A 16.933333,16.933333 0 0 1 59.297763,188.01117 V 108.98896 A 16.933333,16.933333 0 0 1 76.231096,92.055624 h 25.484664 c 0.93134,0 1.82316,0.180622 2.73756,0.265289 v 27.956937 a 16.933333,16.933333 0 0 0 16.93333,16.93333 h 27.95694 c 0.0847,0.9144 0.26529,1.80622 0.26529,2.73755 z m -18.49121,-32.11124 a 5.6444444,5.6444444 0 0 1 -0.19755,7.9756 l -20.25791,19.27013 a 16.933333,16.933333 0 0 1 -23.853425,-0.096 l -8.692444,-7.75546 a 5.6488595,5.6488595 0 0 1 7.5184,-8.4328 l 8.946444,7.98124 a 5.6444444,5.6444444 0 0 0 8.218315,0.22578 l 20.32,-19.36609 a 5.6444444,5.6444444 0 0 1 7.99817,0.19755 z"
       id="path1"
       style="fill:#e1f102;stroke-width:5.64444" /></g></svg>
