<?xml version="1.0" encoding="UTF-8" standalone="no"?>
<!-- Created with Inkscape (http://www.inkscape.org/) -->

<svg
   width="135.44958mm"
   height="110.39172mm"
   viewBox="0 0 135.44958 110.39172"
   version="1.1"
   id="svg1"
   xml:space="preserve"
   xmlns="http://www.w3.org/2000/svg"
   xmlns:svg="http://www.w3.org/2000/svg"><defs
     id="defs1" /><g
     id="layer1"
     transform="translate(-36.79136,-93.347493)"><path
       d="m 81.578399,104.95372 -39.376564,53.94647 a 28.222222,28.222222 0 0 0 22.870411,44.83896 l 79.021964,-0.19727 a 28.222222,28.222222 0 0 0 22.64057,-44.96951 l -39.64541,-53.7492 a 28.222222,28.222222 0 0 0 -45.516663,0.11362 z m 36.423231,6.59212 39.64542,53.7492 a 16.933333,16.933333 0 0 1 -13.58103,26.95798 l -79.021955,0.19727 a 16.639822,16.639822 0 0 1 -15.105035,-9.22485 17.034933,17.034933 0 0 1 -1.870606,-7.70003 16.764,16.764 0 0 1 3.299712,-9.96506 l 39.376558,-53.94647 a 16.933333,16.933333 0 0 1 27.296456,-0.0681 z"
       id="path1"
       style="fill:#e1f102;stroke:none;stroke-width:5.64444" /></g></svg>
