<?xml version="1.0" encoding="UTF-8" standalone="no"?>
<!-- Created with Inkscape (http://www.inkscape.org/) -->

<svg
   width="110.29328mm"
   height="135.44984mm"
   viewBox="0 0 110.29328 135.44984"
   version="1.1"
   id="svg1"
   xml:space="preserve"
   xmlns="http://www.w3.org/2000/svg"
   xmlns:svg="http://www.w3.org/2000/svg"><defs
     id="defs1" /><g
     id="layer1"
     transform="translate(-49.306749,-80.775083)"><path
       d="M 148.05066,125.73822 94.202661,86.227107 A 28.222222,28.222222 0 0 0 49.30675,108.98551 v 79.02221 a 28.222222,28.222222 0 0 0 44.912845,22.75276 L 148.0676,171.24937 a 28.222222,28.222222 0 0 0 0,-45.5168 z m -6.68302,36.40666 -53.848001,39.51111 a 16.933333,16.933333 0 0 1 -26.924,-13.64827 v -79.02221 a 16.639822,16.639822 0 0 1 9.262534,-15.081958 17.034933,17.034933 0 0 1 7.704666,-1.851378 16.764,16.764 0 0 1 9.9568,3.324578 l 53.848001,39.511108 a 16.933333,16.933333 0 0 1 0,27.29654 z"
       id="path1"
       style="fill:#e1f102;stroke:none;stroke-width:5.64444" /></g></svg>
