<?xml version="1.0" encoding="UTF-8" standalone="no"?>
<!-- Created with Inkscape (http://www.inkscape.org/) -->

<svg
   width="211.66666mm"
   height="211.66667mm"
   viewBox="0 0 211.66666 211.66667"
   version="1.1"
   id="svg1"
   xml:space="preserve"
   xmlns="http://www.w3.org/2000/svg"
   xmlns:svg="http://www.w3.org/2000/svg"><defs
     id="defs1" /><g
     id="layer1"
     transform="translate(1.3799452,-42.666667)"><path
       d="m 166.05897,192.11603 c -2.55059,7.21995 -12.68942,13.19106 -20.77509,14.93837 -5.53508,1.17475 -12.75291,2.10609 -37.07341,-7.97242 -27.315582,-11.31676 -65.246248,-51.62974 -65.246248,-78.45637 0,-13.65673 7.874,-29.557128 21.642916,-29.557128 6.625167,0 8.085667,0.127 10.265834,5.356225 2.550583,6.161613 8.773583,21.342353 9.514416,22.899153 3.058584,6.38281 -3.1115,10.12085 -7.58825,15.67815 -1.42875,1.67323 -3.048,3.48298 -1.23825,6.59554 1.799167,3.04905 8.022167,13.19106 17.166167,21.33176 11.810995,10.52301 21.388915,13.87898 24.817915,15.30773 2.55058,1.05939 5.59858,0.81492 7.46125,-1.17475 2.36008,-2.55164 5.29166,-6.78603 8.27616,-10.95692 2.10609,-2.98556 4.78367,-3.35598 7.58825,-2.29764 1.89442,0.65616 25.9715,11.8364 26.9875,13.62498 0.75142,1.30281 0.75142,7.46337 -1.79916,14.68332 M 104.47455,42.666665 h -0.0529 v 0 c -58.345928,0 -105.8015952,47.469425 -105.8015952,105.833325 0,23.14258 7.46125,44.61193 20.1506672,62.0268 L 5.5838881,249.85552 46.255638,236.85495 c 16.73225,11.07334 36.703,17.47838 58.218912,17.47838 58.34592,0 105.81217,-47.47049 105.81217,-105.83334 0,-58.3639 -47.46625,-105.833325 -105.81217,-105.833325"
       id="whatsapp-[#128]"
       style="fill:#05022b;fill-rule:evenodd;stroke:none;stroke-width:10.5833" /></g></svg>
