<?xml version="1.0" encoding="UTF-8" standalone="no"?>
<!-- Uploaded to: SVG Repo, www.svgrepo.com, Generator: SVG Repo Mixer Tools -->

<svg
   fill="#000000"
   width="738.46155"
   height="738.46155"
   viewBox="0 0 48.000001 48.000001"
   data-name="Layer 1"
   version="1.1"
   id="svg1"
   xmlns="http://www.w3.org/2000/svg"
   xmlns:svg="http://www.w3.org/2000/svg">
  <defs
     id="defs1" />
  <path
     d="m 24,1.1920929e-7 c 3,0 5.43,3.28999998079071 8.09,4.41999998079071 2.66,1.13 6.82,0.51 8.84,2.65 C 42.95,9.2100001 42.44,13.14 43.58,15.91 44.72,18.68 48,21 48,24 c 0,3 -3.29,5.43 -4.42,8.09 -1.13,2.66 -0.51,6.82 -2.65,8.84 -2.14,2.02 -6.07,1.53 -8.84,2.65 C 29.32,44.7 27,48 24,48 21,48 18.57,44.71 15.91,43.58 13.25,42.45 9.0900001,43.07 7.0700001,40.93 c -2.02,-2.14 -1.53,-6.07 -2.65,-8.84 C 3.3000001,29.32 1.1920929e-7,27 1.1920929e-7,24 1.1920929e-7,21 3.2900001,18.57 4.4200001,15.91 c 1.13,-2.66 0.51,-6.8199999 2.65,-8.8399999 2.14,-2.02 6.0699999,-1.53 8.8399999,-2.65 C 18.68,3.3000001 21,1.1920929e-7 24,1.1920929e-7 Z M 24,7.5800001 A 16.42,16.42 0 1 0 40.42,24 v 0 A 16.47,16.47 0 0 0 24,7.5800001 Z M 31.62,16.73 l 1.61,1.52 a 1.25,1.25 0 0 1 0,1.51 L 23.08,31.07 a 2.07,2.07 0 0 1 -1.61,0.7 2.23,2.23 0 0 1 -1.61,-0.7 L 14.37,25.6 a 1,1 0 0 1 -0.1,-1.42 l 0.1,-0.11 1.63,-1.51 a 1.1,1.1 0 0 1 1.54,-0.07 l 0.07,0.07 3.89,4 8.59,-9.8 a 1.1,1.1 0 0 1 1.53,-0.03 z"
     id="path1"
     style="fill:#e1f102" />
</svg>
